<?xml version="1.0" standalone="no"?>
<!DOCTYPE svg PUBLIC "-//W3C//DTD SVG 20010904//EN"
 "http://www.w3.org/TR/2001/REC-SVG-20010904/DTD/svg10.dtd">
<svg version="1.0" xmlns="http://www.w3.org/2000/svg"
 width="1120.000000pt" height="1120.000000pt" viewBox="0 0 1120.000000 1120.000000"
 preserveAspectRatio="xMidYMid meet">
<metadata>
Created by potrace 1.14, written by Peter Selinger 2001-2017
</metadata>
<g transform="translate(0.000000,1120.000000) scale(0.100000,-0.100000)"
fill="#000000" stroke="none">
<path d="M6513 10370 c-39 -16 -92 -32 -118 -35 -59 -7 -148 -36 -197 -64 -36
-19 -44 -17 -39 11 0 4 -8 12 -18 17 -14 8 -29 4 -65 -20 -44 -27 -50 -29 -86
-18 -36 11 -47 9 -117 -18 -43 -17 -96 -33 -118 -36 -34 -4 -91 -23 -165 -54
-8 -3 -17 -7 -20 -7 -3 -1 -14 -7 -25 -13 -37 -20 -97 -35 -135 -35 -21 0 -55
-8 -76 -18 -20 -11 -40 -17 -44 -15 -3 2 -28 -14 -54 -35 -26 -22 -71 -47 -98
-55 -28 -8 -74 -32 -102 -53 -28 -22 -71 -48 -96 -59 -25 -11 -69 -30 -97 -43
-29 -13 -53 -26 -53 -30 0 -4 -44 -30 -97 -60 -61 -33 -122 -76 -161 -114 -35
-34 -77 -65 -93 -69 -16 -4 -29 -12 -29 -17 0 -6 -4 -10 -10 -10 -5 0 -18 -8
-29 -17 -10 -10 -40 -36 -66 -58 -71 -58 -143 -133 -187 -192 -21 -29 -46 -53
-56 -53 -9 0 -35 -11 -57 -25 -80 -48 -111 -61 -149 -60 l-38 0 -3 72 c-2 60
-7 79 -27 105 -15 20 -24 42 -21 56 4 26 -31 112 -45 112 -5 0 -20 -9 -34 -19
-13 -11 -41 -22 -62 -25 -35 -6 -116 -58 -116 -75 0 -3 -41 -33 -90 -65 -50
-32 -90 -62 -90 -67 0 -5 -5 -9 -11 -9 -6 0 -16 -6 -23 -12 -7 -7 -27 -24 -45
-38 -17 -14 -51 -42 -74 -63 -64 -57 -194 -157 -198 -152 -7 6 -132 -115 -163
-158 -36 -49 -63 -59 -166 -62 -49 -2 -100 -10 -121 -19 -49 -21 -91 -27 -108
-16 -8 5 -22 5 -30 0 -38 -19 -233 -30 -326 -17 -38 5 -85 24 -85 34 0 5 -19
9 -43 10 -35 2 -48 9 -77 41 -46 51 -62 72 -79 104 -15 30 -38 42 -88 47 -6 0
-20 16 -31 35 -16 28 -118 106 -137 106 -14 0 -92 65 -103 86 -12 22 -27 29
-59 25 -6 -1 -14 3 -18 8 -3 6 -12 8 -20 5 -27 -11 -57 19 -91 92 -20 41 -41
74 -47 75 -56 4 -76 15 -128 70 -31 32 -64 59 -73 59 -56 0 -109 -66 -116
-145 -8 -79 -5 -301 5 -370 9 -70 10 -204 3 -300 -3 -29 1 -60 9 -75 11 -22
10 -27 -7 -44 -18 -19 -18 -20 5 -50 28 -37 27 -55 -9 -157 -33 -94 -34 -111
-10 -179 29 -83 24 -392 -7 -424 -13 -15 -11 -65 6 -113 14 -42 15 -141 0
-207 -9 -42 -46 -126 -56 -126 -4 0 -10 -9 -14 -19 -10 -32 -91 -54 -150 -41
-34 8 -67 -4 -97 -32 -18 -18 -51 -42 -73 -53 -73 -37 -110 -66 -185 -143 -41
-42 -97 -95 -123 -117 -49 -41 -52 -47 -46 -120 3 -41 -1 -54 -22 -60 -65 -21
-106 -118 -94 -225 17 -154 33 -162 320 -166 116 -1 230 -5 255 -7 163 -18
181 -24 200 -65 11 -25 15 -155 6 -200 -5 -25 20 -98 40 -119 6 -6 10 -22 8
-35 -5 -38 -22 -99 -28 -105 -3 -4 -1 -12 5 -20 6 -7 8 -13 3 -13 -5 0 -10
-33 -11 -73 -8 -216 -8 -344 -2 -357 11 -25 26 -201 19 -230 -2 -10 -12 -268
-13 -367 -1 -57 -6 -103 -10 -103 -5 0 -5 -6 -1 -12 11 -18 12 -48 2 -48 -5 0
-6 -5 -2 -12 5 -7 9 -40 10 -73 1 -33 5 -82 10 -110 9 -58 9 -206 0 -285 -21
-196 -26 -375 -9 -375 6 0 15 -4 20 -8 10 -10 12 -77 3 -77 -4 0 -15 -20 -24
-45 -26 -67 -16 -231 16 -255 13 -10 11 -36 -6 -75 -20 -45 -28 -128 -16 -161
17 -45 19 -89 4 -111 -8 -13 -12 -23 -8 -23 4 0 1 -7 -6 -15 -15 -18 -26 -127
-15 -152 4 -10 9 -22 10 -28 2 -5 4 -14 6 -20 1 -5 -1 -37 -5 -70 -8 -65 0
-96 32 -133 22 -25 20 -41 -11 -84 -15 -20 -19 -41 -18 -85 3 -82 9 -163 15
-200 3 -18 8 -46 10 -62 2 -17 7 -35 12 -42 13 -22 14 -70 1 -82 -6 -7 -25
-18 -40 -25 -15 -6 -26 -16 -22 -21 3 -5 10 -33 16 -63 9 -48 14 -82 23 -189
2 -20 5 -40 8 -45 7 -13 4 -92 -4 -100 -4 -3 -4 -12 -1 -20 3 -8 -1 -14 -8
-14 -10 0 -10 -3 -2 -11 8 -8 8 -20 3 -35 -5 -13 -6 -24 -2 -24 4 0 8 -28 9
-63 1 -34 4 -86 6 -116 2 -30 0 -73 -5 -95 -14 -65 -15 -80 -6 -92 5 -6 3 -34
-3 -61 -10 -43 -9 -54 5 -74 9 -13 16 -20 16 -16 0 5 11 -3 24 -17 13 -15 30
-26 39 -26 9 0 18 -4 21 -9 3 -4 26 -14 51 -21 41 -11 51 -11 83 5 20 9 37 15
38 14 0 -2 8 3 17 13 16 15 57 15 57 -1 0 -9 54 -5 95 7 25 7 40 4 84 -20 47
-26 59 -29 100 -22 25 5 179 9 341 11 281 2 333 4 407 19 23 4 46 0 77 -16 41
-20 47 -20 74 -6 30 16 55 14 132 -8 50 -15 90 -12 102 7 4 6 8 8 8 3 0 -5 7
-3 15 4 8 7 15 9 15 5 0 -4 6 -2 13 4 8 6 16 8 19 5 5 -5 84 -8 453 -19 94 -3
193 -8 220 -11 28 -4 59 -6 70 -6 19 1 59 38 67 63 3 8 26 0 71 -25 62 -35 70
-37 97 -26 17 7 30 16 30 21 0 5 9 4 20 -3 16 -11 26 -9 57 7 21 11 41 24 44
28 3 5 12 2 20 -5 31 -31 79 -36 375 -38 313 -1 339 -2 366 -14 9 -4 31 -3 50
2 22 6 44 5 68 -3 62 -22 122 -17 186 14 32 16 67 27 78 25 12 -2 37 -6 56 -9
19 -3 44 -6 55 -9 29 -5 121 -18 158 -21 18 -1 40 2 49 6 17 9 112 20 200 22
27 1 48 6 48 10 0 11 100 6 106 -5 3 -5 10 -6 15 -3 5 4 9 1 9 -4 0 -6 3 -10
8 -10 4 1 9 1 12 -1 29 -11 51 -7 60 11 17 31 50 39 83 21 15 -9 27 -19 27
-23 0 -16 71 -39 107 -35 42 5 96 15 101 20 2 2 24 -2 49 -10 36 -11 49 -11
66 -1 27 15 348 20 427 6 84 -15 105 -14 128 6 26 22 69 30 86 15 9 -6 68 -8
172 -5 87 3 248 7 356 8 141 2 201 6 210 15 14 14 58 16 58 2 0 -47 302 -56
340 -9 3 4 15 9 27 13 16 5 23 2 28 -14 3 -11 9 -20 13 -21 4 0 18 -2 30 -5
17 -3 25 1 29 15 5 21 39 35 49 20 3 -5 9 -7 14 -4 5 3 11 1 15 -5 4 -6 10 -8
15 -5 5 3 18 2 28 -4 30 -16 86 -18 120 -4 29 12 39 11 82 -4 44 -15 54 -16
82 -4 18 8 49 13 68 12 34 -1 60 -1 190 0 55 0 155 -7 155 -11 0 -1 27 -3 60
-4 33 -2 65 -5 70 -6 6 -1 12 -1 15 0 3 1 28 3 55 5 77 6 134 13 143 19 11 7
99 18 147 18 66 1 102 -12 114 -39 l12 -25 26 26 c25 25 37 30 57 27 102 -20
869 -42 931 -28 11 3 48 10 81 17 74 15 80 24 84 135 7 218 12 265 32 315 17
43 14 175 -5 214 -6 13 -6 16 2 11 8 -4 10 2 6 22 -3 15 -7 84 -9 153 -1 87
-6 132 -16 147 -12 18 -12 25 -2 35 15 15 16 50 1 65 -7 7 -8 22 -1 45 10 37
9 76 -4 218 -8 91 -11 329 -4 395 2 22 12 55 22 73 16 30 17 35 3 62 -8 16
-19 31 -24 35 -18 10 -32 71 -22 96 5 13 8 26 8 29 0 3 12 25 27 49 33 51 36
109 11 206 -9 33 -20 75 -24 93 -5 17 -5 32 -1 32 4 0 10 8 14 18 22 62 24 76
15 100 -18 45 -19 65 -6 81 14 17 14 21 2 65 -4 16 -9 43 -10 60 -2 17 -3 31
-4 31 -1 0 -2 77 -3 170 -1 151 3 198 18 266 2 11 6 29 9 40 11 50 30 98 61
155 19 33 34 68 34 76 0 9 7 18 15 22 10 3 15 19 15 45 0 26 9 53 24 76 13 19
36 72 51 118 27 83 48 129 97 208 14 24 29 62 32 84 3 22 14 69 26 105 18 55
66 303 68 350 1 8 3 22 5 30 7 27 18 84 22 115 2 17 4 30 5 30 1 0 3 7 5 15
11 57 25 130 31 155 12 59 12 127 0 168 -10 36 -14 81 -6 90 1 1 3 9 5 17 2 8
13 50 25 94 12 43 20 88 17 100 -3 11 -8 31 -11 44 -12 46 -17 68 -21 92 -19
125 -22 217 -8 247 9 19 8 120 -2 188 -3 22 -7 53 -9 69 -2 17 -14 41 -28 55
-17 18 -24 34 -22 51 2 14 6 38 8 54 3 16 -2 48 -10 72 -8 23 -13 53 -10 66 2
14 -6 34 -20 51 -20 23 -23 36 -19 79 4 42 1 55 -15 70 -23 22 -22 18 -25 83
-2 28 -4 50 -5 50 -1 0 -3 11 -4 25 -2 14 -7 43 -11 65 -5 22 -9 45 -10 50 0
6 -4 16 -8 23 -5 6 -6 12 -3 12 10 0 -42 85 -53 86 -32 4 -29 -1 -45 79 -8 34
-43 128 -64 170 -21 41 -65 136 -67 145 -9 35 -41 90 -58 99 -32 17 -66 70
-93 146 -31 85 -56 133 -88 170 -15 17 -40 53 -57 82 -16 29 -48 66 -69 83
-22 18 -40 38 -40 47 0 19 -57 76 -69 69 -10 -7 -24 19 -27 49 -1 11 -2 25 -3
32 0 6 -20 29 -43 50 -126 116 -274 264 -306 306 -22 29 -70 69 -124 104 -79
51 -97 70 -104 110 -1 6 -8 21 -16 32 -13 18 -17 19 -34 7 -22 -17 -37 -8
-119 69 -141 133 -169 154 -233 181 -37 15 -74 34 -83 41 -8 7 -19 13 -23 13
-4 0 -17 9 -29 21 -31 29 -92 59 -120 59 -23 0 -95 41 -132 76 -32 30 -67 45
-129 53 -37 5 -64 15 -72 25 -8 11 -32 19 -66 23 -29 3 -84 18 -122 34 -37 16
-80 29 -95 29 -37 0 -86 33 -102 69 -15 33 -48 47 -121 50 -21 1 -53 10 -70
20 -18 10 -67 24 -108 31 -41 6 -79 13 -85 14 -55 14 -72 20 -83 29 -7 5 -27
11 -45 12 -17 2 -34 4 -37 5 -14 6 -76 4 -87 -3 -6 -4 -14 -3 -18 3 -3 6 -10
8 -15 5 -4 -3 -31 2 -58 11 -45 15 -55 15 -94 2 -67 -22 -198 -6 -198 24 0 6
-13 8 -32 4 -44 -8 -44 -8 -108 0 -30 5 -118 8 -195 8 -124 0 -145 -2 -186
-22 -48 -23 -69 -27 -69 -13 0 16 -49 61 -67 60 -10 0 -50 -13 -90 -29z
m-4732 -2235 c24 -3 58 -8 74 -12 17 -3 37 -7 45 -8 58 -9 75 -20 71 -47 0 -5
4 -8 9 -8 6 0 10 -4 10 -9 0 -5 22 -48 49 -94 27 -47 53 -96 57 -109 10 -31
12 -128 2 -128 -4 0 -5 -6 -2 -14 3 -7 -1 -39 -9 -69 -8 -31 -12 -58 -9 -61 3
-3 1 -6 -4 -6 -6 0 -16 -16 -23 -35 -6 -19 -26 -44 -44 -57 -18 -12 -34 -25
-37 -28 -3 -3 -14 -7 -25 -8 -11 -2 -33 -11 -48 -19 -16 -8 -56 -19 -90 -24
-34 -6 -67 -15 -74 -21 -23 -18 -128 -2 -175 28 -89 55 -161 140 -197 233 -40
101 -36 164 16 214 24 24 36 45 39 72 9 77 66 138 132 142 21 1 53 14 79 33
42 31 91 51 104 44 4 -2 27 -6 50 -9z m1320 -21 c87 -7 127 -30 183 -108 11
-15 30 -39 43 -54 34 -39 84 -144 79 -167 -2 -11 -9 -31 -14 -45 -7 -18 -6
-37 4 -65 20 -59 18 -66 -36 -124 -27 -29 -52 -61 -55 -71 -3 -10 -15 -22 -26
-25 -10 -4 -19 -15 -19 -25 0 -11 -10 -21 -22 -25 -42 -12 -78 -30 -78 -38 0
-4 -10 -11 -22 -16 -18 -6 -26 -3 -41 15 -22 29 -34 30 -55 5 -19 -21 -61 -34
-78 -23 -6 4 -16 17 -22 28 -10 19 -24 25 -90 40 -8 1 -22 10 -31 18 -10 9
-22 16 -28 16 -17 0 -36 29 -38 58 -1 22 -7 28 -30 32 -23 4 -32 13 -40 40 -6
19 -21 55 -34 79 -24 47 -25 116 -1 131 6 4 12 10 11 13 0 4 7 23 15 44 9 20
18 55 19 78 2 22 5 40 5 40 1 0 3 8 5 18 4 20 23 47 33 45 4 0 12 1 17 2 6 1
15 3 20 5 6 1 17 3 25 4 8 0 29 14 45 29 36 33 55 42 115 49 25 3 47 7 49 9 2
2 7 1 11 -1 4 -3 41 -7 81 -11z m3159 -1679 c0 3 8 1 19 -4 25 -14 161 -30
161 -19 0 4 8 8 18 8 9 0 25 7 35 15 16 12 24 11 60 -9 34 -17 49 -20 77 -13
70 17 100 20 100 8 0 -7 5 -9 10 -6 6 3 10 2 10 -2 0 -7 42 -33 81 -49 3 -2
18 3 33 11 15 8 44 15 64 16 20 1 47 8 60 16 16 10 34 12 55 7 42 -10 57 -7
77 18 25 32 44 14 36 -34 l-7 -40 30 21 c16 12 40 21 53 21 12 0 30 0 38 0 8
0 64 -1 123 -3 108 -3 109 -3 135 25 30 32 53 35 76 12 9 -8 16 -13 16 -9 0 4
7 -1 16 -9 20 -21 36 -20 66 3 21 17 31 18 68 10 108 -24 1050 -29 1088 -5 5
3 25 -4 46 -15 l37 -20 10 31 c8 22 17 30 35 30 13 0 24 -4 24 -9 0 -16 71
-34 140 -36 36 0 71 -4 78 -9 6 -4 12 -4 12 1 0 4 42 9 93 10 50 1 101 4 112
6 42 10 65 20 65 28 0 16 66 9 86 -8 29 -27 82 -32 184 -20 30 4 70 12 88 18
38 12 73 8 129 -17 44 -20 59 -19 90 6 39 31 139 8 201 -46 43 -36 122 -143
122 -164 0 -6 -14 -29 -31 -50 -28 -34 -30 -42 -18 -56 19 -23 20 -155 1 -194
-12 -24 -13 -33 -3 -39 7 -4 12 -23 12 -42 0 -33 -6 -84 -11 -84 -1 0 -3 -9
-4 -20 -2 -11 -6 -39 -10 -62 -4 -23 -9 -55 -11 -70 -2 -15 -7 -48 -11 -73 -6
-40 -29 -110 -65 -195 -6 -16 -13 -34 -13 -40 -4 -30 -20 -82 -28 -92 -6 -7
-8 -13 -4 -13 4 0 -3 -19 -15 -42 -41 -80 -69 -169 -72 -227 -2 -47 -10 -69
-44 -122 -53 -84 -80 -139 -84 -169 -2 -14 -11 -30 -19 -37 -8 -7 -11 -13 -6
-13 5 0 -9 -13 -32 -29 -42 -31 -54 -52 -48 -86 4 -24 -22 -76 -58 -116 -15
-16 -45 -64 -69 -106 -25 -46 -66 -100 -97 -130 -30 -28 -68 -76 -85 -107 -16
-31 -36 -56 -42 -56 -24 0 -154 -123 -196 -185 -15 -22 -40 -46 -56 -55 -16
-8 -53 -37 -83 -63 -29 -26 -84 -69 -123 -95 -60 -41 -74 -57 -99 -108 l-29
-61 -76 -22 c-78 -23 -111 -43 -111 -68 0 -8 -4 -11 -10 -8 -5 3 -10 2 -10 -3
0 -5 -12 -15 -27 -23 -16 -7 -52 -28 -81 -47 -70 -43 -118 -60 -166 -59 -43 0
-77 -31 -69 -64 7 -27 -21 -34 -58 -15 -43 21 -43 21 -82 -19 -30 -30 -117
-74 -117 -58 0 3 -6 1 -12 -4 -24 -19 -93 -36 -138 -34 -37 1 -63 -7 -141 -47
-53 -27 -102 -49 -110 -50 -8 0 -25 -3 -39 -6 -35 -9 -88 -17 -140 -20 -25 -2
-47 -4 -50 -5 -3 -1 -6 -20 -6 -43 -2 -77 -8 -129 -16 -134 -4 -3 -5 -66 -3
-140 4 -112 3 -138 -10 -150 -30 -30 -23 -112 17 -192 19 -39 31 -77 30 -98
l-1 -35 107 5 c140 6 192 16 257 46 22 10 68 20 102 23 36 3 80 14 103 26 24
12 59 21 86 21 24 0 60 7 79 14 19 8 35 12 35 8 0 -4 4 -2 8 4 12 18 75 45
117 51 22 2 74 22 116 43 42 22 108 49 145 60 112 35 176 62 224 94 25 16 47
32 50 36 10 12 106 68 131 75 13 4 38 17 54 28 39 27 149 120 153 130 2 4 10
7 18 7 8 0 14 4 14 8 0 9 116 72 134 72 14 1 56 35 56 47 0 5 31 28 69 51 53
32 79 57 107 100 43 66 83 112 98 112 13 1 66 46 66 57 1 11 38 37 107 75 65
36 64 35 119 82 l40 35 25 -32 c37 -47 42 -65 40 -145 -1 -40 2 -79 7 -85 12
-15 10 -46 -5 -71 -10 -19 -7 -56 6 -56 14 0 37 -56 35 -85 -1 -16 -3 -30 -4
-30 -2 0 -4 -7 -26 -95 -15 -62 -15 -86 0 -236 2 -17 11 -42 19 -55 14 -22 14
-27 -2 -60 -20 -40 -20 -107 -1 -162 11 -29 11 -44 -4 -95 -25 -89 -38 -398
-18 -411 16 -10 32 -81 19 -82 -9 0 -9 -2 0 -5 8 -4 9 -14 3 -35 -10 -32 -10
-35 -10 -49 0 -5 -10 -18 -22 -30 -22 -20 -22 -21 -4 -50 9 -17 15 -34 12 -38
-2 -4 -1 -14 4 -21 11 -19 -8 -69 -32 -82 -36 -20 -68 -52 -68 -71 0 -16 -20
-23 -51 -20 -4 1 -35 4 -70 8 -35 3 -67 8 -70 10 -3 2 -34 6 -68 10 -57 5 -64
4 -88 -20 -23 -24 -28 -25 -47 -12 -12 7 -37 12 -56 9 -19 -2 -294 -5 -610 -6
-442 -2 -588 -6 -632 -16 -43 -11 -61 -11 -71 -3 -8 7 -42 16 -75 20 -84 12
-325 6 -351 -8 -12 -6 -21 -8 -21 -5 0 4 -11 -3 -25 -14 -28 -21 -46 -21 -97
3 -56 25 -81 29 -153 26 -111 -5 -534 -4 -717 3 l-168 6 -30 -25 -29 -25 -48
21 c-118 54 -109 52 -135 25 -25 -27 -57 -32 -91 -13 -26 14 -130 11 -174 -4
-24 -9 -41 -9 -72 2 -63 21 -467 16 -557 -6 -17 -4 -26 -1 -30 10 -5 14 -15
16 -53 10 -25 -4 -172 -8 -326 -8 -154 -1 -286 -5 -292 -9 -8 -5 -25 -1 -43
10 -24 14 -36 15 -59 7 -17 -7 -100 -10 -217 -9 -166 3 -221 6 -360 19 -18 2
-37 6 -43 10 -6 4 -24 1 -39 -7 -29 -14 -47 -14 -92 -2 -38 10 -64 7 -132 -16
-80 -28 -123 -27 -179 2 -50 26 -54 27 -91 11 -28 -11 -155 -10 -219 3 -27 5
-48 2 -84 -14 -43 -19 -61 -21 -184 -16 -75 2 -145 6 -156 8 -11 2 -38 8 -60
12 -22 4 -46 12 -53 18 -10 8 -19 7 -33 -2 -42 -26 -66 -30 -93 -16 -25 13
-28 12 -37 -8 -5 -12 -21 -27 -35 -34 -21 -10 -33 -8 -77 11 -29 13 -58 21
-64 19 -7 -3 -13 -1 -13 4 0 9 -11 9 -160 14 -67 2 -114 -3 -160 -16 -83 -22
-108 -21 -160 5 -33 17 -51 20 -79 15 -20 -4 -121 -9 -226 -10 -104 -2 -203
-6 -220 -9 -67 -13 -78 -16 -83 -20 -2 -3 -12 4 -21 15 -12 15 -31 21 -73 24
-96 5 -101 12 -97 140 4 153 3 400 -2 425 -3 14 -13 41 -23 61 -17 35 -16 38
2 68 16 26 18 43 13 99 -8 95 -5 294 5 382 4 41 8 101 9 132 0 32 3 58 7 58 4
0 5 10 3 23 -3 12 -7 39 -9 59 -3 20 -14 55 -25 77 -26 50 -26 58 -2 66 11 3
23 16 27 28 10 29 12 217 2 217 -4 0 -3 11 2 25 6 15 6 26 0 30 -7 4 -6 13 0
26 6 10 7 19 3 19 -5 0 -9 28 -10 63 -4 219 -4 386 0 412 3 17 8 45 12 64 3
18 1 48 -4 65 -19 57 -21 90 -7 111 13 20 14 56 1 105 -4 14 -6 39 -6 55 1 17
3 172 5 345 1 173 5 325 9 337 4 14 -1 30 -15 45 -17 20 -19 32 -15 96 3 40
10 78 15 85 5 7 8 20 7 29 -2 10 1 20 6 24 11 6 12 77 2 88 -7 7 -8 12 -19 76
-10 59 -11 223 -1 255 14 46 10 66 -17 92 -22 20 -27 53 -7 53 3 0 17 16 30
36 18 26 21 38 13 43 -15 9 -22 38 -26 107 -2 28 -9 60 -15 72 -13 24 -15 65
-4 76 5 4 9 12 9 17 1 5 2 12 4 17 1 4 1 23 0 43 -1 20 4 56 11 80 14 49 13
107 -2 125 -7 9 -3 26 12 56 12 24 24 56 26 72 6 52 45 64 124 37 38 -12 62
-11 117 9 27 10 37 9 57 -4 32 -21 51 -20 74 3 34 34 58 35 93 2 27 -26 35
-28 48 -17 22 20 55 25 76 13 31 -18 54 -18 130 -1 43 9 91 13 117 10 30 -4
49 -2 63 9 10 8 30 15 43 15 20 0 23 -4 19 -30 -5 -31 -3 -32 52 -33 46 -1
142 15 182 29 22 8 45 11 52 7 15 -10 26 -11 121 -18 167 -11 201 -15 251 -28
58 -16 95 -7 126 32 23 27 48 28 43 1 -7 -37 21 -41 118 -15 41 12 67 15 142
21 132 10 459 11 472 2 6 -5 14 -5 17 0 2 4 20 7 38 6 18 -2 85 -6 148 -9 63
-3 133 -8 155 -10 160 -17 221 -17 298 3 42 11 77 16 77 11 0 -4 6 -6 14 -3 8
3 23 1 34 -5 15 -8 26 -5 53 15 42 31 93 30 129 -4 20 -18 31 -22 55 -16 35 9
309 10 475 2 71 -3 132 -1 160 6 36 9 63 8 132 -5 132 -24 184 -19 248 25 39
27 56 33 65 26 27 -23 292 -5 319 20 5 5 17 5 28 -1 10 -5 18 -7 18 -4z"/>
</g>
</svg>
