<svg width="21" height="23" viewBox="0 0 21 23" fill="none" xmlns="http://www.w3.org/2000/svg">
<path d="M20 10.5H21V12.5H20V10.5ZM1 11.5L0.292893 12.2071V10.7929L1 11.5ZM9.79289 1.29289L10.5 0.585786L11.9142 2L11.2071 2.70711L9.79289 1.29289ZM11.2071 20.2929L11.9142 21L10.5 22.4142L9.79289 21.7071L11.2071 20.2929ZM20 12.5H1V10.5H20V12.5ZM11.2071 2.70711L1.70711 12.2071L0.292893 10.7929L9.79289 1.29289L11.2071 2.70711ZM1.70711 10.7929L11.2071 20.2929L9.79289 21.7071L0.292893 12.2071L1.70711 10.7929Z" fill="black"/>
</svg>
