<svg width="21" height="23" viewBox="0 0 21 23" fill="none" xmlns="http://www.w3.org/2000/svg">
<path d="M1 10.5H0V12.5H1V10.5ZM20 11.5L20.7071 12.2071V10.7929L20 11.5ZM11.2071 1.29289L10.5 0.585786L9.08579 2L9.79289 2.70711L11.2071 1.29289ZM9.79289 20.2929L9.08579 21L10.5 22.4142L11.2071 21.7071L9.79289 20.2929ZM1 12.5H20V10.5H1V12.5ZM9.79289 2.70711L19.2929 12.2071L20.7071 10.7929L11.2071 1.29289L9.79289 2.70711ZM19.2929 10.7929L9.79289 20.2929L11.2071 21.7071L20.7071 12.2071L19.2929 10.7929Z" fill="black"/>
</svg>
