<svg width="21" height="22" viewBox="0 0 21 22" fill="none" xmlns="http://www.w3.org/2000/svg">
<path d="M1 10H0V12H1V10ZM20 11L20.7071 11.7071V10.2929L20 11ZM11.2071 0.792893L10.5 0.0857865L9.08579 1.5L9.79289 2.20711L11.2071 0.792893ZM9.79289 19.7929L9.08579 20.5L10.5 21.9142L11.2071 21.2071L9.79289 19.7929ZM1 12H20V10H1V12ZM9.79289 2.20711L19.2929 11.7071L20.7071 10.2929L11.2071 0.792893L9.79289 2.20711ZM19.2929 10.2929L9.79289 19.7929L11.2071 21.2071L20.7071 11.7071L19.2929 10.2929Z" fill="#F17202"/>
</svg>
