<svg width="86" height="86" viewBox="0 0 86 86" fill="none" xmlns="http://www.w3.org/2000/svg">
<path d="M0 43H43M43 43H86M43 43V0M43 43V86M43 43L21.5 5.76144M43 43L64.5 80.2396M43 43L80.2391 21.5005M43 43L5.76094 64.5005M43 43L64.5 5.76144M43 43L21.5 80.2396M43 43L80.2391 64.5005M43 43L5.76095 21.5005M43 43L54.1291 1.4656M43 43L31.8706 84.5352M43 43L84.5347 54.1296M43 43L1.46504 31.8712M43 43L31.8709 1.46534M43 43L54.1294 84.535M43 43L84.535 31.8709M43 43L1.46535 54.1294M43 43L12.5944 12.5947M43 43L73.4056 73.4058M43 43L73.4056 12.5947M43 43L12.5944 73.4058" stroke="#F17202" stroke-width="2"/>
</svg>
