<svg width="32" height="32" viewBox="0 0 32 32" fill="none" xmlns="http://www.w3.org/2000/svg">
<path d="M8.11436 0.113175C6.21131 0.199721 5.17752 0.516422 4.48991 0.784618C3.5788 1.13936 2.92924 1.56163 2.24543 2.24448C1.56163 2.92733 1.13841 3.5769 0.785568 4.48801C0.517372 5.17562 0.200672 6.20941 0.114126 8.11246C0.019021 10.1696 0 10.7868 0 15.9986C0 21.2103 0.0209231 21.8266 0.113175 23.8856C0.199721 25.7887 0.518323 26.8206 0.784617 27.5101C1.13936 28.4212 1.56258 29.0708 2.24448 29.7555C2.92733 30.4384 3.5769 30.8625 4.48896 31.2154C5.17657 31.4836 6.21036 31.8003 8.11341 31.8868C10.1715 31.981 10.7897 32 15.9995 32C21.2113 32 21.8276 31.9791 23.8866 31.8868C25.7896 31.8003 26.8215 31.4817 27.511 31.2154C28.4221 30.8625 29.0717 30.4384 29.7555 29.7555C30.4393 29.0727 30.8606 28.4221 31.2154 27.511C31.4836 26.8234 31.8003 25.7896 31.8868 23.8866C31.981 21.8276 32 21.2113 32 15.9995C32 10.7897 31.981 10.1715 31.8868 8.11246C31.8003 6.20941 31.4817 5.17562 31.2154 4.48801C30.8606 3.5769 30.4384 2.92733 29.7555 2.24448C29.0727 1.56163 28.4221 1.13936 27.511 0.784618C26.8234 0.516422 25.7896 0.199721 23.8866 0.113175C21.8295 0.0190212 21.2113 1.11295e-06 15.9995 1.11295e-06C10.7897 1.11295e-06 10.1715 0.0180701 8.11436 0.113175" fill="url(#paint0_radial_224_2)"/>
<path d="M8.11436 0.113175C6.21131 0.199721 5.17752 0.516422 4.48991 0.784618C3.5788 1.13936 2.92924 1.56163 2.24543 2.24448C1.56163 2.92733 1.13841 3.5769 0.785568 4.48801C0.517372 5.17562 0.200672 6.20941 0.114126 8.11246C0.019021 10.1696 0 10.7868 0 15.9986C0 21.2103 0.0209231 21.8266 0.113175 23.8856C0.199721 25.7887 0.518323 26.8206 0.784617 27.5101C1.13936 28.4212 1.56258 29.0708 2.24448 29.7555C2.92733 30.4384 3.5769 30.8625 4.48896 31.2154C5.17657 31.4836 6.21036 31.8003 8.11341 31.8868C10.1715 31.981 10.7897 32 15.9995 32C21.2113 32 21.8276 31.9791 23.8866 31.8868C25.7896 31.8003 26.8215 31.4817 27.511 31.2154C28.4221 30.8625 29.0717 30.4384 29.7555 29.7555C30.4393 29.0727 30.8606 28.4221 31.2154 27.511C31.4836 26.8234 31.8003 25.7896 31.8868 23.8866C31.981 21.8276 32 21.2113 32 15.9995C32 10.7897 31.981 10.1715 31.8868 8.11246C31.8003 6.20941 31.4817 5.17562 31.2154 4.48801C30.8606 3.5769 30.4384 2.92733 29.7555 2.24448C29.0727 1.56163 28.4221 1.13936 27.511 0.784618C26.8234 0.516422 25.7896 0.199721 23.8866 0.113175C21.8295 0.0190212 21.2113 1.11295e-06 15.9995 1.11295e-06C10.7897 1.11295e-06 10.1715 0.0180701 8.11436 0.113175" fill="url(#paint1_radial_224_2)"/>
<path d="M12.0716 15.9317C12.0716 18.1202 13.8452 19.8947 16.0336 19.8947C18.2221 19.8947 19.9967 18.1202 19.9967 15.9317C19.9967 13.7432 18.2221 11.9687 16.0336 11.9687C13.8452 11.9687 12.0716 13.7432 12.0716 15.9317V15.9317ZM9.92923 15.9317C9.92923 12.5602 12.6622 9.82728 16.0336 9.82728C19.4051 9.82728 22.1381 12.5602 22.1381 15.9317C22.1381 19.3032 19.4051 22.0361 16.0336 22.0361C12.6622 22.0361 9.92933 19.3034 9.92933 15.9317H9.92923ZM20.9532 22.2781C20.9531 21.996 21.0367 21.7201 21.1933 21.4855C21.35 21.2508 21.5727 21.0679 21.8334 20.9598C22.094 20.8517 22.3808 20.8234 22.6576 20.8783C22.9343 20.9332 23.1886 21.069 23.3882 21.2684C23.5877 21.4679 23.7237 21.722 23.7789 21.9987C23.834 22.2754 23.8059 22.5623 23.698 22.823C23.5902 23.0837 23.4074 23.3066 23.1729 23.4634C22.9383 23.6203 22.6625 23.704 22.3804 23.7042H22.3798C22.0016 23.704 21.639 23.5537 21.3715 23.2863C21.104 23.019 20.9536 22.6563 20.9532 22.2781V22.2781ZM11.2308 6.25494C10.0718 6.30772 9.44182 6.50079 9.02316 6.66389C8.46813 6.87997 8.07211 7.13733 7.65574 7.55312C7.23937 7.96892 6.98164 8.36456 6.76651 8.91959C6.60331 9.33806 6.41025 9.96822 6.35756 11.1273C6.29992 12.3804 6.28842 12.7568 6.28842 15.9315C6.28842 19.1062 6.30087 19.4816 6.35756 20.7357C6.41034 21.8948 6.60483 22.5237 6.76651 22.9434C6.98259 23.4984 7.23994 23.8945 7.65574 24.3108C8.07154 24.7272 8.46718 24.9849 9.02316 25.2001C9.44163 25.3633 10.0718 25.5563 11.2308 25.609C12.4839 25.6666 12.8604 25.6782 16.0336 25.6782C19.2069 25.6782 19.5837 25.6659 20.8379 25.6088C21.9969 25.556 22.6259 25.3615 23.0456 25.1999C23.6006 24.9847 23.9966 24.7264 24.413 24.3106C24.8293 23.8948 25.0861 23.4982 25.3022 22.9432C25.4654 22.5248 25.6585 21.8946 25.7112 20.7355C25.7688 19.4814 25.7803 19.106 25.7803 15.9313C25.7803 12.7566 25.7688 12.3812 25.7112 11.1271C25.6584 9.96803 25.4644 9.33806 25.3022 8.9194C25.0861 8.36437 24.8288 7.96835 24.413 7.55293C23.9972 7.13752 23.6006 6.87978 23.0456 6.6637C22.6271 6.5005 21.9969 6.30744 20.8379 6.25475C19.5848 6.19712 19.2083 6.18561 16.0336 6.18561C12.8589 6.18561 12.4836 6.19712 11.2308 6.25475V6.25494ZM11.1324 27.7478C9.86684 27.6902 9.00205 27.4895 8.24682 27.1956C7.46515 26.8922 6.80255 26.485 6.14091 25.8244C5.47926 25.1638 5.07316 24.5011 4.76968 23.7185C4.47581 22.9628 4.27514 22.0985 4.2175 20.8329C4.15892 19.5654 4.14551 19.1601 4.14551 15.9317C4.14551 12.7033 4.15892 12.298 4.2175 11.0304C4.27514 9.76479 4.47581 8.90057 4.76968 8.14487C5.07316 7.3632 5.47936 6.69927 6.14091 6.03896C6.80246 5.37864 7.4642 4.97207 8.24682 4.66773C9.00348 4.37386 9.86684 4.17319 11.1324 4.11555C12.4006 4.05792 12.8052 4.04356 16.0336 4.04356C19.2621 4.04356 19.6673 4.05697 20.9349 4.11555C22.2005 4.17319 23.0648 4.37386 23.8205 4.66773C24.6021 4.97207 25.2647 5.37836 25.9264 6.03896C26.588 6.69956 26.9933 7.3632 27.2976 8.14487C27.5915 8.90057 27.7931 9.76489 27.8498 11.0304C27.9074 12.299 27.9208 12.7033 27.9208 15.9317C27.9208 19.1601 27.9074 19.5654 27.8498 20.8329C27.7922 22.0986 27.5915 22.9633 27.2976 23.7185C26.9933 24.5002 26.587 25.1628 25.9264 25.8244C25.2658 26.4861 24.6021 26.8922 23.8214 27.1956C23.0648 27.4895 22.2005 27.6911 20.9358 27.7478C19.6681 27.8057 19.263 27.8198 16.0351 27.8198C12.8071 27.8198 12.4011 27.8064 11.1329 27.7478" fill="white"/>
<defs>
<radialGradient id="paint0_radial_224_2" cx="0" cy="0" r="1" gradientUnits="userSpaceOnUse" gradientTransform="translate(2.07101 0.70102) scale(40.6281)">
<stop offset="0.09" stop-color="#FA8F21"/>
<stop offset="0.78" stop-color="#D82D7E"/>
</radialGradient>
<radialGradient id="paint1_radial_224_2" cx="0" cy="0" r="1" gradientUnits="userSpaceOnUse" gradientTransform="translate(22.1653 1.72853) scale(35.7531)">
<stop offset="0.64" stop-color="#8C3AAA" stop-opacity="0"/>
<stop offset="1" stop-color="#8C3AAA"/>
</radialGradient>
</defs>
</svg>
