<svg width="364" height="60" viewBox="0 0 364 60" fill="none" xmlns="http://www.w3.org/2000/svg">
<path fill-rule="evenodd" clip-rule="evenodd" d="M40.6502 0.221033C40.38 0.346408 40.1161 0.422622 40.0639 0.390507C39.9483 0.319234 38.8542 0.679303 38.6348 0.860757C38.5178 0.957475 38.4768 0.93944 38.4768 0.790966C38.4768 0.532928 38.1799 0.533544 37.9203 0.792323C37.7645 0.947591 37.6543 0.965007 37.4415 0.868413C37.2305 0.772559 37.0637 0.796649 36.7365 0.970445C36.5006 1.09545 36.1638 1.2002 35.9877 1.20304C35.8115 1.20588 35.6286 1.24689 35.5813 1.2942C35.5338 1.34138 35.4128 1.39215 35.3124 1.40672C35.212 1.42142 34.8805 1.55384 34.5757 1.70083C34.2593 1.8535 33.9184 1.9354 33.7808 1.89192C33.6484 1.85005 33.5041 1.87364 33.4603 1.94429C33.4164 2.01507 33.2751 2.07288 33.1462 2.07288C33.0172 2.07288 32.8672 2.14242 32.8127 2.22728C32.6814 2.43159 32.2081 2.69049 31.9657 2.69049C31.8592 2.69049 31.6493 2.82019 31.4992 2.97867C31.3491 3.13703 30.9335 3.37036 30.5756 3.49709C30.2176 3.62383 29.9249 3.7655 29.9249 3.81207C29.9249 3.85864 29.616 4.04738 29.2385 4.23143C28.861 4.41548 28.4321 4.72775 28.2856 4.92526C28.139 5.12289 27.9507 5.28446 27.8671 5.28446C27.5795 5.28446 25.8488 6.8375 25.6992 7.22969C25.6409 7.38273 25.4887 7.50786 25.3611 7.50786C25.2335 7.50786 25.0005 7.61903 24.8433 7.7549C24.6862 7.89078 24.487 8.00195 24.4007 8.00195C24.3145 8.00195 24.1557 8.03567 24.0479 8.07693C23.887 8.13844 23.8518 8.05235 23.8518 7.59791C23.8518 7.24896 23.7809 6.98536 23.6602 6.88556C23.5548 6.79847 23.4967 6.65445 23.5309 6.56551C23.5651 6.47657 23.5195 6.26226 23.4294 6.08921C23.2867 5.81524 23.2456 5.79881 23.1098 5.96186C23.024 6.06487 22.8176 6.14912 22.6512 6.14912C22.4682 6.14912 22.2269 6.29314 22.0413 6.51313C21.8722 6.71324 21.6176 6.91384 21.4755 6.9588C21.3334 7.00377 20.6896 7.49304 20.0448 8.04617C19.4001 8.5993 18.8077 9.074 18.7285 9.10093C18.4739 9.18752 17.7197 9.88826 17.6271 10.1242C17.5104 10.4216 16.9583 10.6259 16.5268 10.5314C16.322 10.4866 16.0364 10.5337 15.8125 10.6489C15.6074 10.7546 15.3523 10.8079 15.2457 10.7671C15.1393 10.7264 14.9544 10.733 14.8351 10.7819C14.4105 10.9561 12.7074 10.9424 12.5586 10.7637C12.4817 10.6714 12.2902 10.5959 12.1331 10.5959C11.8042 10.5959 11.594 10.4124 11.2057 9.78611C11.013 9.47569 10.862 9.35798 10.7075 9.39812C10.5572 9.4374 10.4642 9.37107 10.4183 9.19221C10.3765 9.02953 10.0804 8.78866 9.64661 8.5641C9.25954 8.36374 8.91659 8.09978 8.88449 7.97737C8.8426 7.81778 8.70627 7.7549 8.40237 7.7549C8.01815 7.7549 7.95631 7.70303 7.73953 7.19905C7.5504 6.75932 7.43786 6.6432 7.20089 6.6432C7.00419 6.6432 6.78779 6.49473 6.57053 6.21088C6.24878 5.79053 6.22994 5.78374 5.88551 5.96124C5.51369 6.15282 5.40574 6.50474 5.3921 7.56962C5.38863 7.84137 5.38318 8.17488 5.37995 8.31075C5.37685 8.44663 5.42817 8.88229 5.49423 9.27892C5.56338 9.6947 5.57082 10.2702 5.51183 10.6377C5.44416 11.0595 5.45507 11.3307 5.54405 11.4391C5.64296 11.5596 5.63279 11.6312 5.5055 11.7095C5.36049 11.7988 5.36607 11.853 5.53996 12.0445C5.7343 12.2584 5.73083 12.3174 5.48407 12.9848C5.23928 13.6474 5.23432 13.7247 5.41354 14.0994C5.63006 14.5518 5.60441 16.2131 5.3719 16.7917C5.27807 17.0253 5.27882 17.1925 5.37426 17.3704C5.57739 17.7486 5.53055 18.6266 5.27771 19.1807C4.9598 19.8771 4.73472 20.0302 4.16249 19.9389C3.77257 19.8768 3.64244 19.9111 3.45058 20.1265C3.32143 20.2714 2.98642 20.4923 2.70619 20.6174C2.42596 20.7424 2.07087 21.0261 1.91719 21.2479C1.76362 21.4697 1.42428 21.8014 1.16313 21.9848C0.737276 22.2842 0.695507 22.3609 0.755866 22.7315C0.813622 23.0862 0.778546 23.1648 0.507364 23.288C0.103691 23.4711 -0.102792 24.1776 0.0508939 24.8493C0.239035 25.6713 0.303357 25.6926 2.47207 25.6527C2.8129 25.6464 3.47834 25.6884 3.95092 25.746C4.76025 25.8449 4.81553 25.8718 4.90626 26.2112C4.95918 26.4094 4.96946 26.8108 4.92931 27.1034C4.87601 27.4912 4.91295 27.722 5.06577 27.9544C5.2456 28.2279 5.25366 28.3382 5.1224 28.7296C5.00008 29.0946 4.91257 31.803 5.01879 31.9344C5.05225 31.9757 5.13171 32.6513 5.13505 32.9226C5.13654 33.0414 5.09564 34.0559 5.04433 35.1769C4.98062 36.5649 4.99512 37.3922 5.08944 37.7708C5.18289 38.1458 5.1933 38.6882 5.12141 39.4384C4.8827 41.9288 4.88209 41.9706 5.07742 41.9706C5.31352 41.9706 5.31266 42.3357 5.07569 42.6729C4.85569 42.9861 4.88494 44.0768 5.12092 44.3602C5.24734 44.5121 5.24412 44.6028 5.10382 44.8342C4.91939 45.1384 4.90589 45.71 5.07407 46.094C5.13394 46.2307 5.1203 46.4154 5.04086 46.542C4.81491 46.9027 4.72295 47.6385 4.88023 47.8274C4.96897 47.934 4.98806 48.1334 4.93055 48.351C4.81491 48.7879 4.85668 49.0123 5.10518 49.2893C5.28155 49.4858 5.27994 49.5266 5.08795 49.738C4.90911 49.9351 4.88903 50.129 4.95744 51.0041C5.00194 51.5726 5.08833 52.1313 5.14955 52.2457C5.33113 52.5853 5.27758 52.8073 4.99648 52.8806C4.78454 52.9358 4.75046 53.0059 4.82445 53.2347C4.87527 53.3916 4.9329 53.7064 4.95274 53.9343C4.97244 54.1623 5.02388 54.5831 5.06701 54.8694C5.11002 55.1558 5.09837 55.5164 5.04111 55.6709C4.98372 55.8253 4.98669 56.3372 5.04767 56.8083C5.11981 57.3648 5.11398 57.7924 5.03119 58.0292C4.95658 58.2423 4.95013 58.4221 5.01557 58.4625C5.07977 58.5021 5.06713 58.6634 4.98582 58.841C4.8656 59.1042 4.88358 59.1898 5.1063 59.4118C5.25044 59.5553 5.58111 59.7465 5.84126 59.8367C6.26502 59.9836 6.34731 59.9764 6.63213 59.7689C6.86947 59.5959 7.00643 59.5686 7.17238 59.6612C7.32161 59.7443 7.4857 59.7438 7.67087 59.6597C7.88553 59.5623 8.0329 59.5886 8.33234 59.7775C8.60501 59.9496 8.78311 59.9879 8.94126 59.9087C9.06421 59.8472 9.66681 59.8099 10.2803 59.8259C11.8411 59.8664 11.9327 59.8662 12.6971 59.8255C13.0721 59.8055 13.4739 59.7493 13.59 59.7007C13.7126 59.6493 13.9139 59.691 14.0702 59.8C14.2769 59.9443 14.3904 59.9558 14.5612 59.8496C14.7277 59.7459 14.9084 59.7526 15.2838 59.876C15.7191 60.0192 15.8237 60.015 16.0857 59.8439C16.2514 59.7357 16.4223 59.6823 16.4654 59.7254C16.5087 59.7684 17.4772 59.8119 18.6177 59.822C19.7582 59.8322 20.796 59.886 20.9241 59.9418C21.0961 60.0169 21.2114 59.9714 21.3655 59.7675L21.5744 59.4917L22.0181 59.7527C22.4161 59.9867 22.4815 59.9941 22.6512 59.8251C22.7795 59.6973 22.8556 59.6821 22.8877 59.7778C22.9194 59.8728 23.049 59.8448 23.2827 59.6921C23.5835 59.4957 23.6442 59.4897 23.7332 59.6481C23.8188 59.8007 24.1973 59.8263 26.0105 59.8025C27.2637 59.786 28.2155 59.823 28.2569 59.8897C28.3014 59.9615 28.4108 59.9617 28.5448 59.8902C28.6759 59.8203 28.8312 59.8194 28.94 59.888C29.2288 60.0702 29.9487 60.0216 30.1902 59.8039C30.3939 59.6201 30.5016 59.6188 31.4394 59.7897C32.074 59.9052 32.5453 59.9347 32.6744 59.8671C32.7893 59.807 33.1518 59.7538 33.48 59.7491C33.8083 59.7443 34.1884 59.6966 34.3247 59.6432C34.4803 59.5821 34.7266 59.6188 34.9858 59.7415C35.3687 59.9226 35.4079 59.9213 35.5188 59.7238C35.6767 59.4426 35.9083 59.4544 36.1839 59.7578C36.4134 60.0105 36.858 60.0634 37.2993 59.8902C37.4357 59.8367 37.671 59.8488 37.8223 59.9171C38.0092 60.0013 38.1486 59.9996 38.2561 59.9121C38.4352 59.7662 40.8874 59.789 41.239 59.9399C41.3819 60.0011 41.5408 59.9625 41.6864 59.831C41.865 59.67 41.9824 59.6538 42.2465 59.7538C42.4671 59.8375 43.0187 59.8425 43.8713 59.7687C44.5812 59.7073 45.4974 59.6873 45.9072 59.7243C46.4347 59.772 46.7112 59.743 46.8539 59.625C47.0252 59.4833 47.0783 59.4896 47.2081 59.6664C47.292 59.7808 47.523 59.8751 47.7215 59.8761C47.9198 59.8771 48.2906 59.8803 48.5456 59.8834C48.8004 59.8864 49.1422 59.8018 49.3052 59.6954C49.5708 59.5219 49.609 59.5215 49.6745 59.6916C49.7656 59.9282 50.1272 59.9426 50.1272 59.7096C50.1272 59.565 50.2285 59.5674 50.7692 59.7254C51.2802 59.8746 51.4603 59.8824 51.6514 59.7635C51.8236 59.6563 51.9295 59.6518 52.0257 59.7477C52.196 59.9174 52.641 59.9205 52.8089 59.7532C52.8976 59.6648 53.0442 59.6655 53.2825 59.7558C53.5091 59.8418 53.6779 59.845 53.7742 59.7653C53.8699 59.6863 54.2415 59.6859 54.8436 59.7642C55.9832 59.9126 56.3275 59.9106 57.1918 59.7512C58.3889 59.5305 58.8126 59.5448 58.9554 59.8109C59.0781 60.0393 59.0904 60.04 59.2468 59.8268C59.3731 59.6545 59.4884 59.6267 59.7572 59.7034C60.0291 59.781 62.4962 59.8743 64.938 59.8992C65.0744 59.9006 65.3532 59.866 65.5577 59.8223C65.7622 59.7785 66.0421 59.7206 66.1797 59.6934C66.409 59.6481 66.4314 59.5406 66.45 58.396C66.4624 57.632 66.5282 57.0782 66.6197 56.9684C66.7235 56.8437 66.7425 56.5537 66.6816 56.019C66.6335 55.5956 66.6016 54.8794 66.6105 54.4276C66.6201 53.941 66.5706 53.5712 66.489 53.521C66.3894 53.4596 66.3926 53.3865 66.5008 53.2567C66.6104 53.125 66.6136 53.0405 66.5126 52.9399C66.4223 52.8499 66.4149 52.7283 66.4911 52.5865C66.5641 52.4503 66.5585 51.988 66.4759 51.3393C66.3151 50.0767 66.3692 48.5145 66.5815 48.2911C66.7078 48.1581 66.6901 48.0599 66.4885 47.7779C66.1761 47.3406 66.1773 47.226 66.5006 46.7047C66.7143 46.3599 66.7459 46.1781 66.6743 45.7019C66.6261 45.3821 66.5325 45.0194 66.4662 44.896C66.3802 44.7356 66.4013 44.587 66.5401 44.3759C66.6958 44.1391 66.7062 44.0187 66.5926 43.7703C66.4849 43.5347 66.4865 43.4174 66.5991 43.2823C66.6876 43.1759 66.7 43.0752 66.6301 43.0321C66.5656 42.9924 66.5065 42.5011 66.4987 41.9403C66.491 41.3795 66.4775 40.8095 66.4687 40.6736C66.4339 40.1333 66.7447 38.8068 66.9807 38.4886C67.1184 38.3032 67.2309 38.0658 67.2309 37.961C67.2309 37.8564 67.2931 37.7708 67.3694 37.7708C67.4504 37.7708 67.4786 37.6595 67.4373 37.5022C67.3943 37.3385 67.4386 37.1811 67.5507 37.0995C67.6519 37.0257 67.8213 36.6349 67.9272 36.2309C68.0331 35.8268 68.2543 35.3368 68.4189 35.1418C68.5835 34.9469 68.7182 34.6562 68.7182 34.496C68.7182 34.3358 68.7825 34.0482 68.861 33.857C68.9396 33.6658 69.053 33.2036 69.1131 32.8299C69.1732 32.4563 69.2711 31.8448 69.3306 31.4712C69.3901 31.0975 69.5357 30.3526 69.6543 29.8159C69.827 29.034 69.8415 28.7616 69.7273 28.447C69.6091 28.121 69.6267 27.9326 69.8308 27.3415C69.9944 26.8674 70.0395 26.5593 69.9654 26.4215C69.7863 26.088 69.5864 24.3932 69.7087 24.2462C69.7692 24.1737 69.7861 23.6852 69.7463 23.1606C69.6909 22.43 69.6308 22.207 69.4891 22.207C69.3415 22.207 69.3196 22.0958 69.3799 21.6566C69.4244 21.3328 69.4037 21.0741 69.3297 21.0285C69.2606 20.9859 69.2353 20.8523 69.2737 20.7318C69.3128 20.6091 69.258 20.4418 69.1493 20.352C69.0154 20.2412 68.9791 20.0823 69.0324 19.8403C69.0863 19.5956 69.0563 19.4689 68.9333 19.4218C68.8179 19.3776 68.7586 19.1745 68.7625 18.8352C68.7705 18.1026 68.3882 16.8873 68.1754 16.9687C68.0601 17.0128 67.9851 16.887 67.9329 16.562C67.8914 16.3034 67.6608 15.6936 67.4202 15.2071C67.1797 14.7207 66.983 14.2664 66.983 14.1976C66.983 14.1288 66.8234 13.9434 66.6285 13.7855C66.3973 13.5986 66.2248 13.2971 66.1328 12.9197C66.0542 12.5967 65.8256 12.1601 65.6154 11.9316C65.4083 11.7065 65.2098 11.4092 65.1745 11.2708C65.1392 11.1324 64.988 10.9656 64.8382 10.9003C64.6887 10.8348 64.5491 10.6614 64.5282 10.5149C64.5055 10.3562 64.3724 10.2192 64.1987 10.1757C63.9869 10.1227 63.9243 10.0385 63.9694 9.86676C64.0058 9.72829 63.9368 9.54981 63.803 9.43555C62.9639 8.71899 61.6536 7.40806 61.6536 7.28503C61.6536 7.20375 61.3723 6.98437 61.0283 6.79761C60.5722 6.54982 60.3836 6.36602 60.3312 6.11823C60.257 5.76817 60.1161 5.68319 59.9783 5.90541C59.9347 5.97581 59.5185 5.65255 59.0448 5.18045C58.4822 4.61978 58.0567 4.30196 57.8004 4.25082C57.5861 4.20808 57.2203 4.00638 56.9871 3.80244C56.7428 3.58862 56.4234 3.43162 56.2328 3.43162C56.0287 3.43162 55.7456 3.28031 55.493 3.03635C55.1926 2.7462 54.9696 2.64108 54.6542 2.64108C54.4161 2.64108 54.1971 2.56956 54.1629 2.4805C54.1288 2.39218 53.9165 2.31992 53.6909 2.31992C53.4654 2.31992 53.1675 2.24087 53.0291 2.14428C52.8907 2.04756 52.5859 1.95035 52.3518 1.92811C52.0304 1.89748 51.8861 1.80434 51.7634 1.54791C51.6267 1.26208 51.5233 1.20822 51.1119 1.20822C50.8429 1.20822 50.6229 1.15659 50.6229 1.09359C50.6229 1.0306 50.3023 0.940058 49.9103 0.892625C49.5182 0.845069 49.037 0.724757 48.8406 0.625198C48.6321 0.51934 48.2716 0.46462 47.9731 0.493277C47.6922 0.520329 47.3244 0.471412 47.1556 0.384453C46.9564 0.282053 46.8062 0.268837 46.728 0.346779C46.5381 0.536015 45.5916 0.490929 45.4195 0.2844C45.3117 0.154825 45.2039 0.135555 45.0488 0.218315C44.9287 0.282423 44.7904 0.295146 44.7418 0.246602C44.6931 0.198058 44.1141 0.154084 43.4551 0.148649C42.5337 0.141238 42.2034 0.1841 42.0253 0.333932C41.8114 0.513904 41.7794 0.507605 41.6074 0.250926C41.3875 -0.0770259 41.2985 -0.0798675 40.6502 0.221033ZM11.7366 14.2492C12.0603 14.2934 12.3253 14.3918 12.3253 14.4676C12.3253 14.5434 12.5265 14.9303 12.7723 15.3272C13.1934 16.0072 13.2142 16.0893 13.1321 16.7502C13.0106 17.7264 12.7755 18.228 12.3628 18.3908C12.1718 18.4663 11.9187 18.5776 11.8003 18.6382C11.682 18.6987 11.4753 18.7484 11.3414 18.7484C11.2073 18.7484 10.9549 18.8132 10.7805 18.8924C10.2652 19.1264 9.31469 18.6135 8.78225 17.8139C8.2674 17.0409 8.18398 16.1331 8.60712 15.9074C8.76402 15.8236 8.855 15.6487 8.855 15.4305C8.855 15.0231 9.36897 14.4818 9.65267 14.5903C9.76162 14.6319 9.98979 14.5338 10.1857 14.361C10.4165 14.1573 10.6292 14.0768 10.838 14.1137C11.0085 14.144 11.4129 14.2049 11.7366 14.2492ZM19.6646 14.3037C19.9252 14.2995 20.1159 14.4428 20.5086 14.938C21.257 15.8814 21.4014 16.2043 21.2364 16.5651C21.134 16.7891 21.1382 16.9362 21.253 17.1499C21.3878 17.4011 21.3698 17.467 21.103 17.6956C20.9362 17.8386 20.7631 18.0506 20.7184 18.1667C20.6737 18.2828 20.5796 18.3778 20.5092 18.3778C20.439 18.3778 20.3815 18.4612 20.3815 18.5631C20.3815 18.665 20.2882 18.7484 20.1743 18.7484C20.0604 18.7484 19.8642 18.8412 19.7386 18.9545C19.5248 19.1475 19.4996 19.1467 19.3504 18.9434C19.2054 18.7457 19.1763 18.7438 19.0274 18.9226C18.8203 19.1712 18.3984 19.1786 18.3984 18.9337C18.3984 18.8318 18.2993 18.7484 18.1782 18.7484C18.057 18.7484 17.8477 18.6716 17.7134 18.5777C17.5789 18.4839 17.4131 18.3994 17.3449 18.39C17.2767 18.3807 17.221 18.249 17.221 18.0975C17.221 17.9036 17.1566 17.8327 17.0041 17.8583C16.8624 17.882 16.7872 17.8152 16.7872 17.6657C16.7872 17.5398 16.7053 17.329 16.6052 17.1971C16.3653 16.881 16.3699 16.5854 16.6209 16.2037C16.7339 16.0318 16.8375 15.7076 16.8511 15.4834C16.8841 14.943 16.9901 14.7957 17.346 14.7957C17.5091 14.7957 17.6903 14.7103 17.749 14.6059C17.8905 14.354 18.4946 14.1755 18.9561 14.2493C19.1606 14.2822 19.4794 14.3065 19.6646 14.3037ZM39.6422 24.91C40.0643 24.9886 40.2672 24.9709 40.4561 24.8392C40.6738 24.6871 40.742 24.6875 40.9635 24.842C41.1644 24.9822 41.2968 24.9915 41.5797 24.885C41.8887 24.7687 41.9954 24.7901 42.3276 25.0349C42.6098 25.2428 42.7521 25.2833 42.8516 25.1841C42.9267 25.1093 43.141 25.048 43.3279 25.048C43.5148 25.048 43.7022 24.9923 43.7445 24.9241C43.795 24.8425 43.8988 24.8416 44.0486 24.9215C44.2141 25.0099 44.3173 24.9931 44.428 24.8601C44.6677 24.5723 44.8091 24.6461 44.7297 25.0171C44.6662 25.3131 44.6781 25.3311 44.8216 25.1573C44.9569 24.9938 45.1623 24.9691 45.962 25.0202C46.7799 25.0725 46.9558 25.0499 47.0512 24.88C47.1957 24.6227 47.3829 24.6232 47.6695 24.8819C47.8797 25.0715 47.9126 25.0716 48.1211 24.8836C48.2813 24.739 48.3841 24.719 48.479 24.8136C48.6267 24.9608 54.8511 25.015 55.3003 24.873C55.443 24.8279 55.5955 24.8488 55.6394 24.9194C55.7578 25.1104 55.9524 25.0751 55.9524 24.8627C55.9524 24.6329 56.2463 24.6205 56.4313 24.8425C56.6073 25.0538 59.1147 25.0338 59.3298 24.8194C59.5228 24.6271 59.8573 24.6405 60.0295 24.8473C60.1813 25.0296 61.0394 25.0016 61.699 24.7928C61.9659 24.7082 62.1426 24.7324 62.4104 24.8902C62.6891 25.0542 62.7993 25.0673 62.9166 24.9504C63.3252 24.5432 64.2945 24.9114 64.7551 25.6488L65.1112 26.2191L64.8603 26.4852C64.698 26.6574 64.6566 26.7802 64.7428 26.8334C64.9144 26.939 64.9171 27.9728 64.7461 28.078C64.6573 28.1328 64.6624 28.2135 64.762 28.3332C64.8707 28.4638 64.8737 28.6418 64.7737 29.0325C64.6999 29.3208 64.6059 29.8711 64.5645 30.2554C64.5231 30.6396 64.3812 31.1656 64.2489 31.424C64.1167 31.6825 64.0085 31.9933 64.0085 32.1146C64.0085 32.2359 63.8353 32.7004 63.6238 33.1466C63.3776 33.6659 63.2612 34.0736 63.3006 34.2788C63.3449 34.5096 63.2441 34.7669 62.9417 35.1958C62.7104 35.5237 62.5212 35.9014 62.5212 36.0353C62.5212 36.1692 62.4356 36.3504 62.3309 36.4381C61.8427 36.8469 61.7738 36.9468 61.8386 37.1505C61.8831 37.2902 61.7503 37.5573 61.4702 37.8914C61.2294 38.1787 60.9993 38.5446 60.959 38.7044C60.9188 38.8642 60.7042 39.1332 60.4823 39.3019C60.2603 39.4706 60.0081 39.7788 59.9215 39.9867C59.8352 40.1947 59.7142 40.3648 59.6527 40.3648C59.4704 40.3648 58.4469 41.3561 58.3656 41.6114C58.3243 41.7411 58.2203 41.8471 58.1346 41.8471C58.0488 41.8471 57.8467 41.9871 57.6853 42.1582C57.5239 42.3294 57.1209 42.6428 56.7896 42.8546C56.3714 43.1221 56.166 43.3453 56.1181 43.5844C56.0593 43.8773 55.9582 43.9505 55.443 44.0737C55.0752 44.1616 54.8369 44.2866 54.8369 44.3916C54.8369 44.4867 54.7938 44.5645 54.7411 44.5645C54.6884 44.5645 54.3467 44.7606 53.9816 45.0002C53.546 45.286 53.2361 45.4099 53.0799 45.3605C52.7888 45.2685 52.4719 45.5062 52.5646 45.747C52.6506 45.9702 52.1592 45.9918 52.0669 45.7689C52.0241 45.6653 51.9005 45.7262 51.6908 45.9542C51.519 46.1411 51.2782 46.2958 51.1556 46.2982C51.033 46.3007 50.7933 46.3797 50.6229 46.474C50.451 46.5689 50.1599 46.6149 49.9689 46.577C49.7496 46.5335 49.5471 46.5783 49.4112 46.7005C49.0862 46.9924 48.1481 47.3027 47.5244 47.3244L46.9667 47.3438L46.9643 47.8379C46.9631 48.1096 46.917 48.403 46.8619 48.4898C46.8068 48.5767 46.7997 49.0007 46.8461 49.4319C46.9023 49.9558 46.8849 50.2442 46.7935 50.3004C46.5745 50.4353 46.6371 51.1408 46.9038 51.5436C47.0391 51.7479 47.1174 52.0144 47.0782 52.1376C47.012 52.346 47.0813 52.3552 48.1025 52.2746C48.8128 52.2185 49.2322 52.1295 49.2961 52.0213C49.355 51.9217 49.5845 51.862 49.8669 51.873C50.1309 51.8834 50.4664 51.8026 50.6277 51.6899C50.7938 51.5741 51.0341 51.518 51.1937 51.5579C51.3666 51.6011 51.6728 51.5122 52.0075 51.3216C52.3026 51.1535 52.6136 51.0421 52.6987 51.0738C52.7838 51.1057 53.0627 51.002 53.3184 50.8436C53.5742 50.6851 54.0344 50.4902 54.3411 50.4106C55.1337 50.2047 55.4433 50.0556 56.0763 49.5749C56.383 49.3419 56.7321 49.1476 56.852 49.143C56.9719 49.1386 57.3971 48.8351 57.7971 48.4687C58.2034 48.0964 58.6976 47.7645 58.9174 47.7165C59.1336 47.6692 59.3776 47.5202 59.4596 47.3856C59.5415 47.2509 59.7866 47.0655 60.0041 46.9736C60.2559 46.8674 60.4941 46.6219 60.6599 46.2982C60.8039 46.0169 61.0577 45.7376 61.2281 45.6732C61.3974 45.6089 61.5693 45.4698 61.6101 45.364C61.6509 45.2582 61.9144 45.0565 62.1956 44.916C62.4769 44.7753 62.8374 44.5415 62.9965 44.3962L63.2859 44.1322L63.5257 44.4268C63.7026 44.6442 63.7455 44.8279 63.6892 45.1269C63.6472 45.3499 63.668 45.6305 63.7354 45.7506C63.8182 45.898 63.8138 46.0395 63.7219 46.1863C63.6153 46.3561 63.636 46.459 63.8166 46.6579C64.0402 46.9042 64.0406 46.9351 63.8257 47.6425C63.6893 48.0911 63.6365 48.5079 63.6888 48.7229C63.7357 48.9155 63.7735 49.1817 63.773 49.3145C63.7726 49.4473 63.8341 49.6302 63.9098 49.7211C64.0111 49.8428 64.0096 49.9243 63.9041 50.0294C63.7242 50.2088 63.7182 50.8016 63.8931 51.1273C63.9826 51.2938 63.9851 51.4229 63.9007 51.5242C63.7093 51.754 63.572 54.1448 63.7441 54.2509C63.9635 54.3861 63.922 55.3937 63.6933 55.4812C63.5452 55.5379 63.5312 55.6088 63.6313 55.7951C63.8596 56.2202 63.7859 56.6186 63.4507 56.7708C63.2803 56.8482 63.1409 57.0024 63.1409 57.1134C63.1409 57.3224 63.0637 57.3213 61.4989 57.088C61.1464 57.0354 61.0164 57.0654 60.9598 57.2125C60.902 57.3627 60.831 57.3775 60.645 57.2782C60.5129 57.2078 60.2968 57.1843 60.1648 57.2261C60.0328 57.2678 59.1007 57.2907 58.0935 57.277C54.3655 57.2261 52.5799 57.2639 52.4468 57.3965C52.3529 57.4902 52.2614 57.4846 52.1318 57.3775C51.8684 57.1596 49.4213 57.1548 49.2406 57.3718C49.0657 57.5818 48.7584 57.5786 48.4502 57.3636C48.2992 57.2581 47.9682 57.2067 47.586 57.2293C47.2454 57.2495 46.9667 57.2742 46.9667 57.2843C46.9667 57.3044 44.8959 57.3184 44.7977 57.2988C44.7636 57.292 44.1115 57.2581 43.3485 57.2235C42.1582 57.1694 41.9455 57.1887 41.8494 57.3596C41.7485 57.5393 41.6858 57.5325 41.2114 57.2914C40.7107 57.0368 40.6773 57.0345 40.5241 57.2434C40.3955 57.4186 40.3041 57.4375 40.0706 57.3375C39.7476 57.199 39.16 57.2059 38.8051 57.3523C38.6754 57.4058 38.5407 57.3917 38.4952 57.3202C38.4046 57.1774 35.33 57.2015 34.9754 57.3479C34.8384 57.4044 34.7585 57.3818 34.7585 57.2865C34.7585 57.1816 34.6362 57.1614 34.3557 57.2199C33.8159 57.3326 32.9153 57.3489 31.7602 57.2667C31.2295 57.229 30.7551 57.2504 30.6903 57.315C30.6176 57.3875 30.469 57.3692 30.2951 57.2666C30.1235 57.1653 29.9989 57.1495 29.9708 57.2256C29.9187 57.3669 26.3412 57.2613 26.0977 57.1113C26.0153 57.0606 25.8735 57.0806 25.7825 57.1558C25.6668 57.2516 25.5178 57.255 25.2863 57.1673C25.0399 57.0739 24.8423 57.089 24.5124 57.2265C23.9449 57.4627 23.605 57.4597 23.2544 57.2148C23.0531 57.0744 22.9291 57.0557 22.8163 57.1489C22.6349 57.299 21.4726 57.2768 21.3585 57.1213C21.3163 57.0639 21.1008 57.1103 20.8794 57.2243C20.5438 57.3974 20.279 57.4172 19.2828 57.3437C18.626 57.2952 18.049 57.1937 18.0008 57.1181C17.9375 57.0191 17.8699 57.0235 17.7591 57.1339C17.5597 57.3327 17.1615 57.3321 17.1506 57.1329C17.146 57.0481 17.0817 57.1037 17.0078 57.2565C16.8697 57.5418 16.556 57.6207 16.3472 57.4228C16.2389 57.3202 15.4302 57.1825 14.6802 57.1389C14.5098 57.1289 14.1049 57.1978 13.7804 57.2918C13.2566 57.4436 13.1519 57.44 12.8453 57.2594C12.6456 57.142 12.4325 57.0977 12.34 57.1548C12.252 57.209 11.5573 57.2423 10.7963 57.2285C9.97728 57.2138 9.31767 57.2586 9.1796 57.3382C9.00521 57.4388 8.93246 57.4337 8.89044 57.3182C8.85958 57.2334 8.71346 57.1631 8.56584 57.1621C7.77758 57.1572 7.74003 57.0995 7.81452 56.0077C7.93102 54.3005 7.8538 53.2961 7.59378 53.1359C7.52474 53.0934 7.54978 52.9783 7.65401 52.8592C7.79122 52.7026 7.81154 52.4833 7.74177 51.9141C7.69169 51.5065 7.66864 51.0062 7.69033 50.8024C7.95371 48.3265 7.9542 48.1681 7.69962 47.6595C7.51086 47.2824 7.51198 47.2536 7.7166 47.2003C7.95928 47.137 7.95891 47.1469 7.81402 43.9934C7.76296 42.8825 7.7808 42.1255 7.86322 41.9094C7.95643 41.6654 7.95097 41.4555 7.84414 41.1609C7.73024 40.8469 7.72962 40.7109 7.84154 40.5765C7.95023 40.4458 7.95258 40.3022 7.8507 40.011C7.7756 39.7962 7.75664 39.524 7.80857 39.4059C7.86038 39.2879 7.89297 39.1467 7.88095 39.0923C7.79878 38.7191 7.79246 35.6807 7.87351 35.4643C7.94255 35.28 7.91714 35.1489 7.79234 35.0458C7.60271 34.8889 7.6327 34.4193 7.88516 33.5971C7.96634 33.3327 7.96759 33.1387 7.88888 33.0413C7.71128 32.8217 7.63481 31.2101 7.78589 30.8709C7.89174 30.6331 7.87252 30.548 7.68116 30.4086C7.45323 30.2425 7.45447 30.2295 7.72639 29.9411C7.90524 29.7514 7.95804 29.6149 7.87277 29.5623C7.79952 29.5172 7.73953 29.2853 7.73953 29.0471C7.73953 28.8089 7.67992 28.5028 7.60704 28.3671C7.51074 28.1877 7.51446 28.0722 7.6208 27.9445C7.70136 27.8478 7.7321 27.6774 7.68921 27.5659C7.64621 27.4544 7.67992 27.1735 7.76395 26.9417C7.87649 26.6317 7.88082 26.463 7.78068 26.303C7.6783 26.1397 7.68711 26.0278 7.81601 25.852C7.91032 25.7236 7.98741 25.5162 7.98741 25.391C7.98741 25.0853 8.30371 24.9832 8.69735 25.1619C8.94461 25.2742 9.10139 25.2744 9.37121 25.1631C9.64573 25.0498 9.76398 25.0521 9.91097 25.1735C10.0643 25.3004 10.1405 25.2917 10.3233 25.1268C10.607 24.871 10.7106 24.8726 10.904 25.136C11.0323 25.3109 11.0922 25.3201 11.2505 25.1892C11.3966 25.0683 11.5038 25.064 11.7038 25.1706C11.8995 25.2749 12.0766 25.2737 12.4044 25.1659C12.6458 25.0866 13.0034 25.0535 13.1992 25.0925C13.3949 25.1315 13.5884 25.1097 13.6292 25.0439C13.769 24.8185 14.0818 24.9099 14.0042 25.1536C13.9379 25.3618 13.9912 25.3773 14.5846 25.3231C14.9439 25.2903 15.3367 25.2124 15.4574 25.1501C15.5781 25.0877 15.7383 25.0745 15.8135 25.1208C15.8886 25.1671 16.3755 25.2212 16.8954 25.2412C17.4153 25.2611 17.9968 25.3367 18.1878 25.4091C18.4886 25.5232 18.5755 25.5004 18.8385 25.2382C19.1188 24.959 19.142 24.9543 19.142 25.1771C19.142 25.4644 19.2641 25.4727 20.0391 25.2384C20.7018 25.0379 24.9954 25.0596 26.4545 25.2707C27.0718 25.36 27.3832 25.3465 27.7863 25.2129C28.16 25.0892 28.3806 25.0751 28.5479 25.1643C28.723 25.2576 28.8224 25.2431 28.9355 25.1072C29.1377 24.8645 29.6365 24.8742 29.7766 25.1239C29.8588 25.2702 29.9509 25.293 30.1235 25.2096C30.3561 25.0973 31.4019 25.0982 33.0853 25.2122C33.5625 25.2445 34.0143 25.221 34.0893 25.1598C34.1706 25.0934 34.4704 25.1011 34.8329 25.179C35.7012 25.3654 36.1368 25.3242 36.4554 25.0259C36.6625 24.832 36.7758 24.799 36.8954 24.8979C37.0544 25.0294 38.658 24.9086 38.8137 24.7533C38.8519 24.7153 38.9274 24.7114 38.9816 24.7448C39.0356 24.7781 39.3329 24.8525 39.6422 24.91Z" fill="#F17202"/>
<path d="M85 59.5784V22.6852H87.9958V56.785H107.896V59.5784H85Z" fill="black"/>
<path d="M115.301 27.7448C118.939 24.0906 123.379 22.2635 128.622 22.2635C133.793 22.2635 138.198 24.1082 141.835 27.7975C145.473 31.4517 147.292 35.8964 147.292 41.1318C147.292 41.1669 147.292 41.2196 147.292 41.2899C147.292 46.4198 145.491 50.8118 141.889 54.466C138.287 58.1202 133.864 59.9473 128.622 59.9473C123.308 59.9473 118.85 58.1202 115.248 54.466C111.646 50.7767 109.845 46.3319 109.845 41.1318C109.845 35.8964 111.664 31.4341 115.301 27.7448ZM112.894 41.1318C112.894 45.5589 114.374 49.3361 117.334 52.4632C120.33 55.5552 124.092 57.1012 128.622 57.1012C133.08 57.1012 136.789 55.5552 139.749 52.4632C142.745 49.3712 144.243 45.5941 144.243 41.1318C144.243 36.7046 142.745 32.9274 139.749 29.8003C136.753 26.6731 133.044 25.1096 128.622 25.1096C124.164 25.1096 120.419 26.6731 117.388 29.8003C114.392 32.8923 112.894 36.6694 112.894 41.1318Z" fill="black"/>
<path d="M178.542 22.6852V25.4785H155.806V39.7614H176.402V42.5021H155.806V59.5784H152.81V22.6852H178.542Z" fill="black"/>
<path d="M182.078 22.6852H211.661V25.4785H198.608V59.5784H195.559V25.4785H182.078V22.6852Z" fill="black"/>
<path d="M216.487 59.5784V22.6852H228.096C233.517 22.6852 238.064 24.442 241.737 27.9556C245.411 31.4341 247.248 35.8262 247.248 41.1318C247.248 46.4022 245.411 50.7943 241.737 54.3079C238.1 57.8215 233.553 59.5784 228.096 59.5784H216.487ZM219.483 56.785H228.096C232.768 56.785 236.62 55.3093 239.651 52.3578C242.683 49.3712 244.198 45.6292 244.198 41.1318C244.198 36.5992 242.683 32.8571 239.651 29.9057C236.62 26.9542 232.768 25.4785 228.096 25.4785H219.483V56.785Z" fill="black"/>
<path d="M257.609 27.4813C261.247 23.8271 265.687 22 270.93 22C274.746 22 278.169 23.0717 281.201 25.215C284.268 27.3232 286.533 30.1165 287.995 33.595L284.999 34.4383C283.822 31.5571 281.985 29.2381 279.489 27.4813C276.992 25.7245 274.139 24.846 270.93 24.846C270.894 24.846 270.84 24.846 270.769 24.846C266.347 24.846 262.638 26.392 259.642 29.4841C256.682 32.5409 255.202 36.3356 255.202 40.8682C255.202 45.2954 256.682 49.055 259.642 52.147C262.638 55.239 266.4 56.785 270.93 56.785C274.175 56.785 277.028 55.9242 279.489 54.2025C281.985 52.4808 283.822 50.1794 284.999 47.2982L287.941 48.0888C286.586 51.5673 284.375 54.3782 281.308 56.5215C278.276 58.6297 274.817 59.6838 270.93 59.6838C265.616 59.6838 261.158 57.8567 257.556 54.2025C253.953 50.5132 252.152 46.0684 252.152 40.8682C252.152 35.6329 253.971 31.1706 257.609 27.4813Z" fill="black"/>
<path d="M292.024 55.8363C292.488 55.3796 293.077 55.1512 293.79 55.1512C294.467 55.1512 295.038 55.3796 295.502 55.8363C296.001 56.2931 296.251 56.8729 296.251 57.5756C296.251 58.2783 296.001 58.8581 295.502 59.3148C295.038 59.7716 294.467 60 293.79 60C293.077 60 292.47 59.7716 291.971 59.3148C291.507 58.8581 291.276 58.2783 291.276 57.5756C291.276 56.8729 291.525 56.2931 292.024 55.8363Z" fill="black"/>
<path d="M301.335 59.5784V22.6852H317.116C320.576 22.6852 323.322 23.7744 325.355 25.9528C327.387 28.0962 328.404 30.7138 328.404 33.8058C328.404 36.7221 327.512 39.1641 325.729 41.1318C323.946 43.0643 321.717 44.2238 319.042 44.6103L328.778 59.5784H325.355L315.725 44.8738H304.331V59.5784H301.335ZM316.314 42.2386C318.989 42.2386 321.182 41.4831 322.894 39.9723C324.606 38.4614 325.462 36.4059 325.462 33.8058C325.462 31.4166 324.73 29.4313 323.268 27.8502C321.842 26.2339 319.791 25.4258 317.116 25.4258H304.331V42.2386H316.314Z" fill="black"/>
<path d="M336.61 22.6852V44.5576C336.61 48.6334 337.823 51.7605 340.248 53.939C342.709 56.0823 345.562 57.1539 348.807 57.1539C352.017 57.1539 354.834 56.0823 357.26 53.939C359.72 51.7605 360.951 48.6334 360.951 44.5576V22.6852H364V44.5576C364 47.9307 363.251 50.8118 361.753 53.2011C360.291 55.5904 358.436 57.3121 356.19 58.3662C353.943 59.4554 351.482 60 348.807 60C346.132 60 343.672 59.473 341.425 58.4189C339.214 57.3648 337.359 55.6431 335.861 53.2538C334.363 50.8294 333.614 47.9307 333.614 44.5576V22.6852H336.61Z" fill="black"/>
</svg>
