<svg width="60" height="60" viewBox="0 0 60 60" fill="none" xmlns="http://www.w3.org/2000/svg">
<circle cx="30" cy="30" r="30" fill="#F17202"/>
<path d="M33.7917 30C33.7917 32.1539 32.0568 33.9 29.9167 33.9C27.7766 33.9 26.0417 32.1539 26.0417 30C26.0417 27.8461 27.7766 26.1 29.9167 26.1C32.0568 26.1 33.7917 27.8461 33.7917 30Z" fill="white"/>
<path d="M42.8333 30C42.8333 37.1797 37.0503 43 29.9167 43H35.0833H42.8333V30Z" fill="white"/>
<path d="M42.8333 30C42.8333 37.1797 37.0503 43 29.9167 43M42.8333 30C42.8333 22.8203 37.0503 17 29.9167 17C22.783 17 17 22.8203 17 30C17 37.1797 22.783 43 29.9167 43M42.8333 30V43M29.9167 43H42.8333M29.9167 43H35.0833M42.8333 43H35.0833M48 39.1V43H35.0833M33.7917 30C33.7917 32.1539 32.0568 33.9 29.9167 33.9C27.7766 33.9 26.0417 32.1539 26.0417 30C26.0417 27.8461 27.7766 26.1 29.9167 26.1C32.0568 26.1 33.7917 27.8461 33.7917 30Z" stroke="white" stroke-width="2" stroke-linecap="square" stroke-linejoin="bevel"/>
</svg>
