<svg width="20" height="20" viewBox="0 0 20 20" fill="none" xmlns="http://www.w3.org/2000/svg">
<path d="M16 5.44995L19.8 6.84995V19.0499L16 17.6499V5.44995Z" fill="#D3F5FF"/>
<path d="M15.8 5.44995L12 6.84995V19.0499L15.8 17.6499V5.44995Z" fill="#B7EFFF"/>
<path d="M8 5.44995L11.8 6.84995V19.0499L8 17.6499V5.44995Z" fill="#D3F5FF"/>
<path d="M7.8 5.44995L4 6.84995V19.0499L7.8 17.6499V5.44995Z" fill="#B7EFFF"/>
<path d="M0.200195 5.44995L3.8002 6.84995V19.0499L0.200195 17.6499V5.44995Z" fill="#D3F5FF"/>
<path d="M2.96024 18.73L3.80024 17.29V12.55L0.740234 17.85L2.96024 18.73Z" fill="#E5F9FF"/>
<path d="M11.8 8.48999L8 15.05V17.65L11.8 19.05V8.48999Z" fill="#E5F9FF"/>
<path d="M7.79992 17.7699V11.1499L3.91992 17.8499V19.0299L7.79992 17.7699Z" fill="#A1E8FD"/>
<path d="M3.8002 11.0101L0.200195 17.2301V15.8101L3.8002 9.57007V11.0101Z" fill="#E5F9FF"/>
<path d="M19.8004 13.43L17.1204 18.07L16.4404 17.83L19.8004 12.03V13.43V13.43Z" fill="#E5F9FF"/>
<path d="M15.86 12.5701L12 19.2301V16.5101L15.86 9.8501V11.3701V12.5701Z" fill="#A1E8FD"/>
<path d="M12 10.63C13 8.92999 14.1 7.36999 14.36 5.98999L12 6.84999V10.63Z" fill="#EBD0CA"/>
<path d="M16 14.41L19.8 7.82995V6.84995L16 5.44995V14.41Z" fill="#E5F9FF"/>
<path d="M0.4 5.8499V17.2499C0.4 17.4099 0.54 17.6299 0.7 17.7099L3.78 18.9299C3.9 18.9699 4.12 18.9699 4.22 18.9299L7.48 17.6299C7.78 17.5099 8.22 17.5099 8.52 17.6299L11.78 18.9299C11.9 18.9699 12.12 18.9699 12.22 18.9299L15.48 17.6299C15.78 17.5099 16.22 17.5099 16.52 17.6299L19.4 18.7899C19.54 18.8499 19.6 18.8099 19.6 18.6499V7.2499C19.6 7.0899 19.46 6.8699 19.3 6.7899L16.22 5.5699C16.1 5.5299 15.88 5.5299 15.78 5.5699L12.52 6.8699C12.22 6.9899 11.78 6.9899 11.48 6.8699L8.22 5.5699C8.1 5.5299 7.88 5.5299 7.78 5.5699L4.52 6.8699C4.22 6.9899 3.78 6.9899 3.48 6.8699L0.6 5.7099C0.44 5.6499 0.4 5.6899 0.4 5.8499ZM0 5.8499C0 5.4099 0.34 5.1899 0.74 5.3499L3.62 6.5099C3.82 6.5899 4.16 6.5899 4.36 6.5099L7.62 5.2099C7.82 5.1299 8.16 5.1299 8.36 5.2099L11.62 6.5099C11.82 6.5899 12.16 6.5899 12.36 6.5099L15.62 5.2099C15.82 5.1299 16.16 5.1299 16.36 5.2099L19.44 6.4299C19.74 6.5499 20 6.9099 20 7.2499V18.6499C20 19.0899 19.66 19.3099 19.26 19.1499L16.38 17.9899C16.18 17.9099 15.84 17.9099 15.64 17.9899L12.38 19.2899C12.18 19.3699 11.84 19.3699 11.64 19.2899L8.38 17.9899C8.18 17.9099 7.84 17.9099 7.64 17.9899L4.38 19.2899C4.18 19.3699 3.84 19.3699 3.64 19.2899L0.56 18.0699C0.24 17.9499 0 17.5899 0 17.2499V5.8499Z" fill="#64BCE1"/>
<path d="M3.9998 6.84985H3.7998V19.0499H3.9998V6.84985Z" fill="#64BCE1"/>
<path d="M7.6 6.81012L4 13.0301V11.6101L7.6 5.37012V6.81012Z" fill="#A1E8FD"/>
<path d="M7.9998 5.44995H7.7998V17.65H7.9998V5.44995Z" fill="#64BCE1"/>
<path d="M15.86 8.3701L12 15.0301V13.5101L15.86 6.8501V8.3701Z" fill="#A1E8FD"/>
<path d="M11.9998 6.84985H11.7998V19.0499H11.9998V6.84985Z" fill="#64BCE1"/>
<path d="M15.9998 5.44995H15.7998V17.65H15.9998V5.44995Z" fill="#64BCE1"/>
<path d="M11.8 10.97C11.32 11.79 10.9 12.65 10.6 13.55C10.52 13.77 10.52 13.79 10.4 13.85C10.28 13.81 10.28 13.77 10.2 13.55C9.7 12.05 8.8 10.63 8 9.30995V5.44995L9.46 5.98995C9.68 6.26995 10.02 6.44995 10.4 6.44995C10.48 6.44995 10.56 6.44995 10.64 6.42995L11.8 6.84995V10.97Z" fill="#E5CEC8"/>
<path d="M10 0.649902C7.8 0.649902 6 2.4499 6 4.6499C6 6.8899 8.78 9.6299 9.8 12.7499C9.88 12.9899 9.88 13.0099 10 13.0499C10.12 13.0099 10.12 12.9699 10.2 12.7499C11.22 9.6499 14 6.8899 14 4.6499C14 2.4499 12.2 0.649902 10 0.649902ZM9.96 5.5899C9.34 5.5899 8.82 5.0899 8.82 4.4499C8.82 3.8099 9.32 3.3099 9.96 3.3099C10.58 3.3099 11.1 3.8099 11.1 4.4499C11.1 5.0899 10.6 5.5899 9.96 5.5899Z" fill="#F88765"/>
<path d="M10 12.6899C10 12.7099 10 12.7099 10 12.6899C10.36 11.6499 10.86 10.6699 11.74 9.2099C11.74 9.1899 12.34 8.2099 12.5 7.9499C12.78 7.4899 12.98 7.1099 13.16 6.7699C13.58 5.9299 13.8 5.2499 13.8 4.6499C13.8 2.5499 12.1 0.849902 10 0.849902C7.9 0.849902 6.2 2.5499 6.2 4.6499C6.2 5.2499 6.42 5.9299 6.84 6.7499C7.02 7.0899 7.22 7.4699 7.5 7.9299C7.66 8.2099 8.26 9.1699 8.26 9.1899C9.14 10.6699 9.64 11.6299 10 12.6899ZM9.8 12.7499C8.78 9.6299 6 6.8899 6 4.6499C6 2.4499 7.8 0.649902 10 0.649902C12.2 0.649902 14 2.4499 14 4.6499C14 6.8899 11.22 9.6499 10.2 12.7499C10.12 12.9699 10.12 12.9899 10 13.0499C9.88 13.0099 9.88 12.9699 9.8 12.7499ZM10 5.4499C10.56 5.4499 11 5.0099 11 4.4499C11 3.8899 10.56 3.4499 10 3.4499C9.44 3.4499 9 3.8899 9 4.4499C9 5.0099 9.44 5.4499 10 5.4499ZM10 5.6499C9.34 5.6499 8.8 5.1099 8.8 4.4499C8.8 3.7899 9.34 3.2499 10 3.2499C10.66 3.2499 11.2 3.7899 11.2 4.4499C11.2 5.1099 10.66 5.6499 10 5.6499Z" fill="#E85A2F"/>
</svg>
