<svg width="60" height="60" viewBox="0 0 60 60" fill="none" xmlns="http://www.w3.org/2000/svg">
<path d="M0 29.9999C0 46.5686 13.4314 60 30.0001 60C46.5688 60 60 46.5686 60 29.9999C60 13.4314 46.5686 0 30.0001 0C13.4317 0 0 13.4314 0 29.9999Z" fill="#F3DEB1"/>
<path opacity="0.1" d="M51.9291 29.9999C51.9291 45.1998 40.6245 57.7576 25.9645 59.7289C27.2845 59.9065 28.6312 60 29.9999 60C46.5686 60 60 46.5686 60 29.9999C60 13.4312 46.5686 0 29.9999 0C28.6311 0 27.2845 0.0935143 25.9644 0.271053C40.6245 2.24238 51.9291 14.8002 51.9291 29.9999Z" fill="#050000"/>
<path d="M32.9179 14.3606C26.7342 14.3606 21.7034 19.612 21.7034 26.067C21.7034 32.522 26.7342 37.7734 32.9179 37.7734C39.1017 37.7734 44.1326 32.522 44.1326 26.067C44.1326 19.612 39.1017 14.3606 32.9179 14.3606ZM32.9179 34.8661C28.2699 34.8661 24.4884 30.9188 24.4884 26.0669C24.4884 21.215 28.2699 17.2677 32.9179 17.2677C37.5661 17.2677 41.3475 21.215 41.3475 26.0669C41.3475 30.9188 37.5661 34.8661 32.9179 34.8661Z" fill="black"/>
<path d="M31.4768 27.9853H29.1226V27.9009C29.1226 27.0474 31.899 26.3814 31.899 24.3463C31.899 23.0895 30.8477 22.4048 29.8054 22.4048C28.7811 22.4048 27.7748 23.0613 27.7748 24.2056C27.7748 24.7965 28.0443 24.9654 28.4037 24.9654C28.8619 24.9654 29.1405 24.7028 29.1405 24.4307C29.1405 23.9149 29.4551 23.7272 29.8144 23.7272C30.3176 23.7272 30.4973 24.093 30.4973 24.3931C30.4973 25.5843 27.667 26.4284 27.667 27.9008V28.8106C27.667 29.0827 28.0264 29.2609 28.278 29.2609H31.4768C31.7013 29.2609 31.899 28.9514 31.899 28.6137C31.8991 28.2761 31.7015 27.9853 31.4768 27.9853Z" fill="black"/>
<path d="M37.317 22.4045C36.8139 22.4045 36.5982 22.4608 36.2299 23.1361L35.3044 24.8244L34.379 23.1361C34.0107 22.4608 33.795 22.4045 33.2918 22.4045C32.9414 22.4045 32.5911 22.6014 32.5911 23.1361V28.8105C32.5911 29.1106 32.9414 29.2607 33.2918 29.2607C33.6422 29.2607 33.9926 29.1106 33.9926 28.8105V25.1995L34.8462 26.8315C34.954 27.0473 35.1247 27.1036 35.2865 27.1036C35.4572 27.1036 35.6369 27.0379 35.7537 26.8315L36.6163 25.2934V28.8106C36.6163 29.1107 36.9666 29.2608 37.317 29.2608C37.6674 29.2608 38.0178 29.1107 38.0178 28.8106V23.1362C38.0178 22.6016 37.6764 22.4045 37.317 22.4045Z" fill="black"/>
<path d="M32.9183 8C23.3745 8 15.6102 16.1048 15.6102 26.067V27.5236H14.004C12.6659 27.5236 11.5774 28.6599 11.5774 30.0566V34.9567C11.5774 36.3534 12.6659 37.4897 14.004 37.4897H15.6103C15.6103 41.2216 15.605 41.011 15.6244 41.2268H9.39248C8.6235 41.2268 8 41.8776 8 42.6803V48.5465C8 49.3492 8.6235 50 9.39248 50C10.1615 50 10.785 49.3492 10.785 48.5465V44.1339C11.3954 44.1339 32.1292 44.1339 32.9182 44.1339C42.462 44.1339 50.2264 36.0291 50.2264 26.067C50.2264 16.1048 42.462 8 32.9183 8ZM15.6102 34.5826H14.3623V30.4309H15.6102V34.5826ZM32.9183 41.2269C32.2931 41.2269 19.1376 41.2269 18.6857 41.2269C18.5255 41.2269 18.3953 41.0909 18.3953 40.9237V37.4897C18.3953 37.1555 18.3953 26.3539 18.3953 26.067C18.3953 17.7077 24.9103 10.9072 32.9183 10.9072C40.9263 10.9072 47.4413 17.7078 47.4413 26.067C47.4413 34.4261 40.9263 41.2269 32.9183 41.2269Z" fill="black"/>
</svg>
