<?xml version="1.0" encoding="iso-8859-1"?>
<!-- Generator: Adobe Illustrator 19.0.0, SVG Export Plug-In . SVG Version: 6.00 Build 0)  -->
<svg version="1.1" id="Layer_1" xmlns="http://www.w3.org/2000/svg" xmlns:xlink="http://www.w3.org/1999/xlink" x="0px" y="0px"
	 viewBox="0 0 512 512" style="enable-background:new 0 0 512 512;" xml:space="preserve">
<g>
	<g>
		<path d="M302.137,85.952c-74.978,0-135.978,60.999-135.978,135.979c0,74.98,61,135.979,135.978,135.979
			c74.979,0,135.979-60.999,135.979-135.979C438.116,146.951,377.116,85.952,302.137,85.952z M302.137,324.14
			c-56.358,0-102.209-45.851-102.209-102.21c0-56.359,45.851-102.21,102.209-102.21c56.359,0,102.21,45.851,102.21,102.21
			C404.347,278.289,358.496,324.14,302.137,324.14z"/>
	</g>
</g>
<g>
	<g>
		<path d="M284.658,244.214h-28.545v-0.98c0-9.914,33.664-17.651,33.664-41.29c0-14.599-12.747-22.552-25.384-22.552
			c-12.42,0-24.622,7.626-24.622,20.918c0,6.864,3.268,8.825,7.626,8.825c5.556,0,8.934-3.05,8.934-6.21
			c0-5.992,3.814-8.172,8.171-8.172c6.101,0,8.28,4.249,8.28,7.735c0,13.836-34.318,23.642-34.318,40.745v10.568
			c0,3.16,4.358,5.23,7.409,5.23h38.785c2.723,0,5.12-3.595,5.12-7.518C289.779,247.592,287.383,244.214,284.658,244.214z"/>
	</g>
</g>
<g>
	<g>
		<path d="M355.474,179.39c-6.101,0-8.716,0.654-13.182,8.498l-11.221,19.61l-11.221-19.61c-4.466-7.844-7.081-8.498-13.182-8.498
			c-4.249,0-8.497,2.287-8.497,8.498v65.912c0,3.486,4.248,5.23,8.497,5.23c4.248,0,8.497-1.744,8.497-5.23v-41.944l10.35,18.957
			c1.307,2.506,3.377,3.16,5.338,3.16c2.07,0,4.249-0.763,5.665-3.16l10.459-17.867v40.855c0,3.486,4.248,5.23,8.497,5.23
			c4.248,0,8.497-1.744,8.497-5.23v-65.912C363.971,181.679,359.831,179.39,355.474,179.39z"/>
	</g>
</g>
<g>
	<g>
		<path d="M302.137,12.068c-115.719,0-209.862,94.144-209.862,209.862v16.92H72.799c-16.224,0-29.423,13.199-29.423,29.423v56.918
			c0,16.224,13.199,29.423,29.423,29.423h19.477c0,43.349-0.065,40.903,0.171,43.409H16.884C7.56,398.023,0,405.583,0,414.907v68.14
			c0,9.325,7.56,16.884,16.884,16.884s16.884-7.56,16.884-16.884v-51.255c7.402,0,258.801,0,268.368,0
			C417.856,431.792,512,337.648,512,221.93S417.856,12.068,302.137,12.068z M92.274,320.846h-15.13v-48.226h15.13V320.846z
			 M302.137,398.024c-7.58,0-167.092,0-172.572,0c-1.942,0-3.521-1.579-3.521-3.521v-39.889c0-3.882,0-129.351,0-132.684
			c0-97.099,78.995-176.093,176.093-176.093s176.094,78.995,176.094,176.093S399.236,398.024,302.137,398.024z"/>
	</g>
</g>
<g>
</g>
<g>
</g>
<g>
</g>
<g>
</g>
<g>
</g>
<g>
</g>
<g>
</g>
<g>
</g>
<g>
</g>
<g>
</g>
<g>
</g>
<g>
</g>
<g>
</g>
<g>
</g>
<g>
</g>
</svg>
