<svg width="32" height="32" viewBox="0 0 32 32" fill="none" xmlns="http://www.w3.org/2000/svg">
<path d="M16 0C7.16337 0 0 7.16337 0 16C0 24.8366 7.16337 32 16 32C24.8366 32 32 24.8366 32 16C32 7.16337 24.8366 0 16 0Z" fill="#40B3E0"/>
<path d="M23.7847 9.20387L20.9269 23.6122C20.9269 23.6122 20.5273 24.6115 19.4282 24.1319L12.8334 19.0759L10.4354 17.9169L6.39868 16.5579C6.39868 16.5579 5.77918 16.3381 5.71918 15.8585C5.65931 15.3789 6.41868 15.1191 6.41868 15.1191L22.4657 8.82412C22.4657 8.82412 23.7847 8.24462 23.7847 9.20387Z" fill="white"/>
<path d="M12.3276 23.4505C12.3276 23.4505 12.1351 23.4325 11.8953 22.673C11.6555 21.9136 10.4365 17.9168 10.4365 17.9168L20.1286 11.7618C20.1286 11.7618 20.6883 11.4221 20.6683 11.7618C20.6683 11.7618 20.7681 11.8217 20.4684 12.1015C20.1686 12.3813 12.8545 18.956 12.8545 18.956" fill="#D2E5F1"/>
<path d="M15.3626 21.0143L12.7541 23.3926C12.7541 23.3926 12.5503 23.5473 12.3271 23.4503L12.8266 19.0327" fill="#B5CFE4"/>
</svg>
