<svg width="33" height="32" viewBox="0 0 33 32" fill="none" xmlns="http://www.w3.org/2000/svg">
<path d="M9.34218 27.5028L9.86109 27.7622C12.0233 29.0595 14.4449 29.6649 16.8665 29.6649C24.4773 29.6649 30.7043 23.4379 30.7043 15.8271C30.7043 12.1947 29.2341 8.64872 26.6395 6.05412C24.0449 3.45953 20.5854 1.98926 16.8665 1.98926C9.25569 1.98926 3.02866 8.21629 3.11515 15.9136C3.11515 18.5082 3.89353 21.0163 5.19082 23.1785L5.53677 23.6974L4.15299 28.8001L9.34218 27.5028Z" fill="#00E676"/>
<path d="M28.1079 4.67027C25.1674 1.64324 21.1025 0 16.9512 0C8.12955 0 1.03766 7.17838 1.12414 15.9135C1.12414 18.6811 1.90252 21.3622 3.19982 23.7838L0.951172 32L9.34036 29.8378C11.6755 31.1351 14.2701 31.7405 16.8647 31.7405C25.5998 31.7405 32.6917 24.5622 32.6917 15.827C32.6917 11.5892 31.0485 7.61081 28.1079 4.67027ZM16.9512 29.0595C14.616 29.0595 12.2809 28.4541 10.2917 27.2432L9.77279 26.9838L4.75658 28.2811L6.05387 23.3514L5.70793 22.8324C1.90252 16.6919 3.71874 8.56216 9.94577 4.75676C16.1728 0.951351 24.216 2.76757 28.0214 8.99459C31.8268 15.2216 30.0106 23.2649 23.7836 27.0703C21.7944 28.3676 19.3728 29.0595 16.9512 29.0595ZM24.562 19.4595L23.6106 19.027C23.6106 19.027 22.2268 18.4216 21.362 17.9892C21.2755 17.9892 21.189 17.9027 21.1025 17.9027C20.8431 17.9027 20.6701 17.9892 20.4971 18.0757C20.4971 18.0757 20.4106 18.1622 19.1998 19.5459C19.1133 19.7189 18.9404 19.8054 18.7674 19.8054H18.6809C18.5944 19.8054 18.4214 19.7189 18.335 19.6324L17.9025 19.4595C16.9512 19.027 16.0863 18.5081 15.3944 17.8162C15.2214 17.6432 14.962 17.4703 14.789 17.2973C14.1836 16.6919 13.5782 16 13.1458 15.2216L13.0593 15.0486C12.9728 14.9622 12.9728 14.8757 12.8863 14.7027C12.8863 14.5297 12.8863 14.3568 12.9728 14.2703C12.9728 14.2703 13.3187 13.8378 13.5782 13.5784C13.7512 13.4054 13.8377 13.1459 14.0106 12.973C14.1836 12.7135 14.2701 12.3676 14.1836 12.1081C14.0971 11.6757 13.0593 9.34054 12.7998 8.82162C12.6268 8.56216 12.4539 8.47568 12.1944 8.38919H11.935C11.762 8.38919 11.5025 8.38919 11.2431 8.38919C11.0701 8.38919 10.8971 8.47568 10.7241 8.47568L10.6377 8.56216C10.4647 8.64865 10.2917 8.82162 10.1187 8.90811C9.94577 9.08108 9.85928 9.25405 9.68631 9.42703C9.0809 10.2054 8.73496 11.1568 8.73496 12.1081C8.73496 12.8 8.90793 13.4919 9.16739 14.0973L9.25387 14.3568C10.0323 16 11.0701 17.4703 12.4539 18.7676L12.7998 19.1135C13.0593 19.373 13.3187 19.5459 13.4917 19.8054C15.3079 21.3622 17.3836 22.4865 19.7187 23.0919C19.9782 23.1784 20.3241 23.1784 20.5836 23.2649C20.8431 23.2649 21.189 23.2649 21.4485 23.2649C21.8809 23.2649 22.3998 23.0919 22.7458 22.9189C23.0052 22.7459 23.1782 22.7459 23.3512 22.573L23.5241 22.4C23.6971 22.227 23.8701 22.1405 24.0431 21.9676C24.216 21.7946 24.389 21.6216 24.4755 21.4486C24.6485 21.1027 24.735 20.6703 24.8214 20.2378C24.8214 20.0649 24.8214 19.8054 24.8214 19.6324C24.8214 19.6324 24.735 19.5459 24.562 19.4595Z" fill="white"/>
</svg>
