<svg width="80" height="80" viewBox="0 0 80 80" fill="none" xmlns="http://www.w3.org/2000/svg">
<path fill-rule="evenodd" clip-rule="evenodd" d="M40.9524 0L40.9524 28.8895H39.0476V6.50453e-08L40.9524 0ZM40.9524 51.1086L40.9524 80H39.0476V51.1086H40.9524ZM0 39.0476H28.8876V40.9524H6.50453e-08L0 39.0476ZM51.1105 39.0476H80V40.9524L51.1105 40.9524L51.1105 39.0476ZM12.3886 11.0419L32.9448 31.6L31.5981 32.9467L11.0419 12.3905L12.3886 11.0438V11.0419ZM48.4019 47.0533L68.9562 67.6095L67.6095 68.9562L47.0552 48.4019L48.4019 47.0533ZM11.0419 67.6095L32.1524 46.4991L33.4991 47.8457L12.3886 68.9562L11.0419 67.6095ZM67.6076 11.0419L68.9543 12.3886L48.4 32.9448L47.0533 31.5981L67.6076 11.0419Z" fill="#F17202"/>
</svg>
