<svg width="80" height="80" viewBox="0 0 80 80" fill="none" xmlns="http://www.w3.org/2000/svg">
<path d="M0 40H40M40 40H80M40 40V0M40 40V80M40 40L20 5.35948M40 40L60 74.6415M40 40L74.641 20.0005M40 40L5.35901 60.0005M40 40L60 5.35948M40 40L20 74.6415M40 40L74.641 60.0005M40 40L5.35902 20.0005M40 40L50.3526 1.36335M40 40L29.6471 78.6374M40 40L78.6369 50.3531M40 40L1.36283 29.6476M40 40L29.6474 1.36311M40 40L50.3529 78.6372M40 40L78.6372 29.6474M40 40L1.36312 50.3529M40 40L11.7157 11.716M40 40L68.2843 68.2845M40 40L68.2843 11.716M40 40L11.7157 68.2845" stroke="#F17202" stroke-width="2"/>
</svg>
