<svg width="80" height="82" viewBox="0 0 80 82" fill="none" xmlns="http://www.w3.org/2000/svg">
<path d="M40 1L41.0704 30.8161L48.3165 1.8741L43.1643 31.2612L56.2695 4.45818L45.12 32.1319L63.5114 8.63932L46.8519 33.3902L69.7258 14.2348L48.2843 34.9811L74.641 21L49.3547 36.835L78.0423 28.6393L50.0162 38.871L79.7809 36.8189L50.24 41L79.7809 45.1811L50.0162 43.129L78.0423 53.3607L49.3547 45.165L74.641 61L48.2843 47.0189L69.7258 67.7652L46.8519 48.6098L63.5114 73.3607L45.12 49.8681L56.2695 77.5418L43.1643 50.7388L48.3165 80.1259L41.0704 51.1839L40 81L38.9296 51.1839L31.6835 80.1259L36.8357 50.7388L23.7305 77.5418L34.88 49.8681L16.4886 73.3607L33.1481 48.6098L10.2742 67.7652L31.7157 47.0189L5.35898 61L30.6453 45.165L1.95774 53.3607L29.9838 43.129L0.219124 45.1811L29.76 41L0.219124 36.8189L29.9838 38.871L1.95774 28.6393L30.6453 36.835L5.35898 21L31.7157 34.9811L10.2742 14.2348L33.1481 33.3902L16.4886 8.63932L34.88 32.1319L23.7305 4.45818L36.8357 31.2612L31.6835 1.8741L38.9296 30.8161L40 1Z" stroke="#F17202" stroke-width="2"/>
</svg>
