<svg width="45" height="38" viewBox="0 0 45 38" fill="none" xmlns="http://www.w3.org/2000/svg">
<path d="M15.3413 3.11035C9.03315 3.11035 4.09131 5.84217 4.09131 9.32857C4.09131 12.8149 9.03315 15.5467 15.3413 15.5467C21.6495 15.5467 26.5913 12.8149 26.5913 9.32857C26.5913 5.84217 21.6496 3.11035 15.3413 3.11035ZM15.3413 13.474C9.9168 13.474 6.13679 11.2894 6.13679 9.32857C6.13679 7.36773 9.9168 5.18311 15.3413 5.18311C20.7658 5.18311 24.5458 7.36773 24.5458 9.32857C24.5459 11.2894 20.7659 13.474 15.3413 13.474Z" fill="#F17202"/>
<path d="M15.3406 6.21777C11.7775 6.21777 8.18152 7.17956 8.18152 9.32687C8.18152 11.4743 11.7774 12.436 15.3406 12.436C18.9039 12.436 22.4998 11.4742 22.4998 9.32687C22.4998 7.17948 18.9039 6.21777 15.3406 6.21777ZM15.3406 10.3632C12.5149 10.3632 10.8007 9.71029 10.3201 9.32687C10.8007 8.94345 12.5138 8.29054 15.3406 8.29054C18.1675 8.29054 19.8805 8.94345 20.3612 9.32687C19.8805 9.71029 18.1665 10.3632 15.3406 10.3632Z" fill="#F17202"/>
<path d="M41.9319 16.5818H30.6819V9.32725C30.6819 4.0967 23.9432 0 15.341 0C6.73886 0 0 4.0968 0 9.32733V27.982C0 33.2125 6.73877 37.3092 15.3409 37.3092H41.9318C43.6234 37.3092 45 35.9143 45 34.2002V19.691C45.0001 17.9769 43.6234 16.5818 41.9319 16.5818ZM42.9546 34.2001C42.9546 34.7721 42.4954 35.2364 41.9319 35.2364H40.9092V31.091C40.9092 30.5179 40.451 30.0547 39.8865 30.0547C39.322 30.0547 38.8638 30.5179 38.8638 31.091V35.2364H36.8183V33.1637C36.8183 32.5905 36.3602 32.1273 35.7956 32.1273C35.2311 32.1273 34.7729 32.5905 34.7729 33.1637V35.2364H32.7275V31.091C32.7275 30.5179 32.2693 30.0547 31.7047 30.0547C31.1402 30.0547 30.6821 30.5179 30.6821 31.091V35.2364H28.6366V33.1637C28.6366 32.5905 28.1784 32.1273 27.6139 32.1273C27.0494 32.1273 26.5912 32.5905 26.5912 33.1637V35.2364H24.5457V31.091C24.5457 30.5179 24.0875 30.0547 23.523 30.0547C22.9585 30.0547 22.5001 30.5179 22.5001 31.091V35.2364H20.4545V33.1637C20.4545 32.5905 19.9964 32.1273 19.4319 32.1273C18.8674 32.1273 18.4092 32.5905 18.4092 33.1637V35.2364H16.3636V31.091C16.3636 30.5179 15.9055 30.0547 15.341 30.0547C14.7765 30.0547 14.3183 30.5179 14.3183 31.091V35.2075C13.6208 35.1764 12.9387 35.1142 12.2728 35.0251V32.1274C12.2728 31.5543 11.8146 31.0911 11.2501 31.0911C10.6856 31.0911 10.2274 31.5543 10.2274 32.1274V34.6571C9.51158 34.4893 8.83042 34.282 8.1819 34.0498V29.0182C8.1819 28.4451 7.72372 27.9819 7.15923 27.9819C6.59471 27.9819 6.13654 28.4451 6.13654 29.0182V33.1564C5.35615 32.7429 4.67201 32.2776 4.09106 31.7739V29.0182C4.09106 28.4451 3.63288 27.9819 3.06835 27.9819C2.62143 27.9819 2.2522 28.2763 2.11315 28.6804C2.07018 28.4504 2.04566 28.2172 2.04566 27.9819V9.32733C2.04566 5.39541 8.13398 2.07276 15.3412 2.07276C22.5484 2.07276 28.6367 5.39533 28.6367 9.32733C28.6367 13.2593 22.5484 16.582 15.3412 16.582C11.6399 16.582 8.19128 15.7487 5.63037 14.2346C5.14047 13.9486 4.51556 14.1144 4.23124 14.6077C3.94691 15.1031 4.11162 15.7374 4.59941 16.0255C7.46896 17.7218 11.2838 18.6547 15.3409 18.6547H41.9318C42.4954 18.6547 42.9545 19.1189 42.9545 19.691V34.2001H42.9546ZM28.6364 14.0304V16.582H25.0834C26.5132 15.8762 27.713 15.0108 28.6364 14.0304Z" fill="#3D3D40"/>
</svg>
